{
.appVersion = "939";
DisplayStrings = (
"studios ouais contacterai mariages navigateur rejouer descendance attirante craindre ventilateur aveugles vision enfreindre plaines combine fourche astucieux capote rat maquereau virent mot pigeons blonds porcher connexion intellectuel arme plomb ras orage coupant paiera parvenu affiches cynique nappe comprendrait murmure regret verbe ego flanc vertu emportera raccompagne riait distant fantasmes capteurs disputer faut individu diminue rangez femme frayeur dimanches diraient tonneau meilleure mirage seuls fendre oiseau chalet occidentale vocabulaire jaunes corrige piscine perspicace propagande dormira justement toutou lambeaux cannibale obtient devraient",
RPP,
BPDPR,
ABCDEFHILMNOPRSTVW,
"Misfeatures Stanniferous Ameliorated Perjinkety Containerising Ridiculer Personize Tangy Teschenite Formularies Samosa Eking Woomera Dapples Ingratiation Inclosers Monadism Feminising Intellectual Pullulates Hindered Eductions Lankily Wandle Cursedness Dehypnotization Haught Chandlery Norseman Brabham Semiquaver Necrophorous Asarabaccas Preachify Suturations Dimethylamine Richards Vaseline Demurring Hygrometrical Scolloping Reconciliation Smearing Misjoining Durrie Thatches Anatolia Ahab Scarabee Munnions Swizzling Towellings Manicures Arrowheads Accentuated Nansen Branded Impassivities Relations Synergids Sliddering Dietetics Feminineness Prosthetic Croaked Pentagynian Torpor Homoplasies Stramping Elicit Musically Extrapolations Poison Diddies Teutons Recapitulatory Exegete Humus Exclaiming Nostalgically"
);
date = "2021-09-29 14:54:41 +0000";
familyName = occasional29;
featurePrefixes = (
{
automatic = 1;
code = "languagesystem DFLT dflt;\012";
name = Languagesystems;
}
);
features = (
{
automatic = 1;
code = "sub f i by f_i;\012";
name = dlig;
}
);
fontMaster = (
{
alignmentZones = (
"{800, 10}",
"{764, 10}",
"{500, 10}",
"{0, -10}",
"{-265, -10}"
);
ascender = 800;
capHeight = 764;
descender = -265;

glyphs = (
{
glyphname = A;
lastChange = "2022-01-30 19:59:48 +0000";
layers = (
{
anchors = (
{
name = bottom;
position = "{463, 0}";
},
{
name = ogonek;
position = "{726, 11}";
},
{
name = top;
position = "{463, 735}";
}
);
components = (
{
name = upper_serif.cap;
transform = "{1, 0, 0, 1, -118, 0}";
},
{
name = upper_serif.cap;
transform = "{-1, 0, 0, 1, 302, 0}";
},
{
name = upper_serif.cap;
transform = "{1, 0, 0, 1, 456, 0}";
},
{
name = upper_serif.cap;
transform = "{-1, 0, 0, 1, 813, 0}";
}
);
layerId = "78BDDC20-0CA0-41A5-B428-980291F99C29";
paths = (
{
closed = 1;
nodes = (
"203 316 LINE",
"532 316 LINE",
"532 279 LINE",
"205 279 LINE"
);
},
{
closed = 1;
nodes = (
"55 0 LINE",
"384 774 LINE",
"711 0 LINE",
"595 0 LINE",
"332 624 LINE",
"374 643 LINE",
"97 0 LINE"
);
},
{
closed = 1;
nodes = (
"55 0 LINE",
"384 774 LINE",
"711 0 LINE",
"595 0 LINE",
"332 624 LINE",
"374 643 LINE",
"97 0 LINE"
);
}
);
width = 758;
},
{
anchors = (
{
name = bottom;
position = "{460, 0}";
},
{
name = ogonek;
position = "{723, 11}";
},
{
name = top;
position = "{460, 735}";
}
);
associatedMasterId = "78BDDC20-0CA0-41A5-B428-980291F99C29";
layerId = "B341697F-7B24-4EA4-8906-5DD6AD8B5FE4";
name = "Sep 18 19, 10:53";
paths = (
{
closed = 1;
nodes = (
"235 262 LINE",
"537 262 LINE",
"537 222 LINE",
"232 222 LINE"
);
},
{
closed = 1;
nodes = (
"15 28 LINE",
"46 33 LINE SMOOTH",
"95 42 OFFCURVE",
"121 64 OFFCURVE",
"149 133 CURVE SMOOTH",
"397 750 LINE",
"412 750 LINE",
"666 124 LINE SMOOTH",
"690 64 OFFCURVE",
"708 40 OFFCURVE",
"749 33 CURVE SMOOTH",
"780 28 LINE",
"780 0 LINE",
"467 0 LINE",
"467 28 LINE",
"524 35 LINE SMOOTH",
"572 42 OFFCURVE",
"581 58 OFFCURVE",
"551 132 CURVE SMOOTH",
"363 597 LINE",
"399 627 LINE",
"199 131 LINE SMOOTH",
"169 55 OFFCURVE",
"189 38 OFFCURVE",
"224 34 CURVE SMOOTH",
"279 28 LINE",
"279 0 LINE",
"15 0 LINE"
);
}
);
width = 795;
},
{
anchors = (
{
name = bottom;
position = "{460, 0}";
},
{
name = ogonek;
position = "{723, 11}";
},
{
name = top;
position = "{460, 735}";
}
);
associatedMasterId = "78BDDC20-0CA0-41A5-B428-980291F99C29";
layerId = "20D1864D-D719-4120-927A-C56700AFC671";
name = "Sep 18 19, 10:53";
width = 795;
},
{
anchors = (
{
name = bottom;
position = "{413, 0}";
},
{
name = ogonek;
position = "{676, 11}";
},
{
name = top;
position = "{413, 735}";
}
);
associatedMasterId = "78BDDC20-0CA0-41A5-B428-980291F99C29";
guideLines = (
{
position = "{772, 40}";
}
);
layerId = "7E6E5A14-D2EF-4A43-86AD-0FBF7AE44BD4";
name = "Feb 1 20, 12:27";
paths = (
{
closed = 1;
nodes = (
"197 286 LINE",
"471 286 LINE",
"471 246 LINE",
"199 246 LINE"
);
},
{
closed = 1;
nodes = (
"7 33 LINE",
"69 40 OFFCURVE",
"85 64 OFFCURVE",
"105 116 CURVE SMOOTH",
"349 750 LINE",
"374 750 LINE",
"627 114 LINE SMOOTH",
"645 68 OFFCURVE",
"662 37 OFFCURVE",
"721 33 CURVE",
"721 0 LINE",
"431 0 LINE",
"431 33 LINE",
"473 40 LINE SMOOTH",
"511 46 OFFCURVE",
"531 75 OFFCURVE",
"516 113 CURVE SMOOTH",
"315 622 LINE",
"347 629 LINE",
"153 114 LINE SMOOTH",
"135 67 OFFCURVE",
"160 44 OFFCURVE",
"194 39 CURVE SMOOTH",
"236 33 LINE",
"236 0 LINE",
"7 0 LINE"
);
}
);
width = 728;
},
{
anchors = (
{
name = bottom;
position = "{416, 0}";
},
{
name = ogonek;
position = "{679, 11}";
},
{
name = top;
position = "{416, 735}";
}
);
associatedMasterId = "78BDDC20-0CA0-41A5-B428-980291F99C29";
guideLines = (
{
position = "{775, 40}";
}
);
layerId = "D797DFC7-E750-46F5-A8B2-745C72CDF6CE";
name = "Mar 17 21, 11:08";
paths = (
{
closed = 1;
nodes = (
"198 286 LINE",
"476 286 LINE",
"476 246 LINE",
"200 246 LINE"
);
},
{
closed = 1;
nodes = (
"5 36 LINE",
"67 43 OFFCURVE",
"83 64 OFFCURVE",
"103 116 CURVE SMOOTH",
"347 740 LINE",
"379 740 LINE",
"632 114 LINE SMOOTH",
"651 68 OFFCURVE",
"667 40 OFFCURVE",
"726 36 CURVE",
"726 0 LINE",
"436 0 LINE",
"436 36 LINE",
"469 39 LINE SMOOTH",
"516 44 OFFCURVE",
"539 67 OFFCURVE",
"521 113 CURVE SMOOTH",
"320 612 LINE",
"348 619 LINE",
"153 111 LINE SMOOTH",
"134 62 OFFCURVE",
"161 42 OFFCURVE",
"205 39 CURVE SMOOTH",
"237 36 LINE",
"237 0 LINE",
"5 0 LINE"
);
}
);
width = 731;
},
{
anchors = (
{
name = bottom;
position = "{402, 0}";
},
{
name = ogonek;
position = "{665, 11}";
},
{
name = top;
position = "{402, 735}";
}
);
associatedMasterId = "78BDDC20-0CA0-41A5-B428-980291F99C29";
layerId = "9E46AF85-BE4B-43AF-9534-5045B71224D7";
name = "Apr 10 21, 18:10";
paths = (
{
closed = 1;
nodes = (
"174 286 LINE",
"462 286 LINE",
"462 246 LINE",
"176 246 LINE"
);
},
{
closed = 1;
nodes = (
"5 40 LINE",
"114 40 LINE",
"58 14 LINE",
"330 740 LINE",
"365 740 LINE",
"648 14 LINE",
"594 40 LINE",
"700 40 LINE",
"700 0 LINE",
"398 0 LINE",
"398 40 LINE",
"573 40 LINE",
"533 14 LINE",
"302 612 LINE",
"344 619 LINE",
"121 13 LINE",
"72 40 LINE",
"243 40 LINE",
"243 0 LINE",
"5 0 LINE"
);
}
);
width = 715;
},
{
anchors = (
{
name = bottom;
position = "{428, 0}";
},
{
name = ogonek;
position = "{691, 11}";
},
{
name = top;
position = "{428, 735}";
}
);
associatedMasterId = "78BDDC20-0CA0-41A5-B428-980291F99C29";
layerId = "EEEA1EC9-3CDB-40FE-BC2E-9D62772A8CC7";
name = "Oct 6 21, 20:51";
paths = (
{
closed = 1;
nodes = (
"193 336 LINE",
"507 336 LINE",
"507 299 LINE",
"195 299 LINE"
);
},
{
closed = 1;
nodes = (
"-5 38 LINE",
"89 38 LINE",
"45 14 LINE",
"347 740 LINE",
"359 740 LINE",
"676 14 LINE",
"633 38 LINE",
"727 38 LINE",
"727 0 LINE",
"444 0 LINE",
"444 38 LINE",
"619 38 LINE",
"579 14 LINE",
"316 612 LINE",
"344 619 LINE",
"93 13 LINE",
"59 38 LINE",
"196 38 LINE",
"196 0 LINE",
"-5 0 LINE"
);
}
);
width = 722;
},
{
anchors = (
{
name = bottom;
position = "{448, 0}";
},
{
name = ogonek;
position = "{711, 11}";
},
{
name = top;
position = "{448, 735}";
}
);
associatedMasterId = "78BDDC20-0CA0-41A5-B428-980291F99C29";
layerId = "0BEEF977-A6AD-491D-8EFA-8FD92A243F37";
name = "Jan 16 22, 15:05";
paths = (
{
closed = 1;
nodes = (
"203 336 LINE",
"512 336 LINE",
"512 299 LINE",
"205 299 LINE"
);
},
{
closed = 1;
nodes = (
"-5 38 LINE",
"89 38 LINE",
"45 14 LINE",
"339 740 LINE",
"364 740 LINE",
"681 14 LINE",
"651 83 LINE",
"662 57 OFFCURVE",
"671 38 OFFCURVE",
"714 33 CURVE SMOOTH",
"731 31 LINE",
"731 -7 LINE",
"469 0 LINE",
"469 38 LINE",
"522 38 LINE SMOOTH",
"557 38 OFFCURVE",
"569 49 OFFCURVE",
"548 96 CURVE",
"584 14 LINE",
"321 612 LINE",
"336 619 LINE",
"93 13 LINE",
"59 38 LINE",
"176 38 LINE",
"176 0 LINE",
"-5 0 LINE"
);
}
);
width = 726;
}
);
leftMetricsKey = "=-15";
rightMetricsKey = "=-15";
unicode = 0041;
},
{
glyphname = B;
lastChange = "2022-01-30 22:00:27 +0000";
layers = (
{
components = (
{
name = upper_serif.cap;
transform = "{-1, 0, 0, -1, 387, 764}";
},
{
name = upper_serif.cap;
transform = "{-1, 0, 0, 1, 387, 0}";
}
);
layerId = "78BDDC20-0CA0-41A5-B428-980291F99C29";
paths = (
{
closed = 1;
nodes = (
"159 764 LINE",
"269 764 LINE",
"269 0 LINE",
"159 0 LINE"
);
},
{
closed = 1;
nodes = (
"250 400 LINE",
"250 417 LINE",
"404 415 LINE SMOOTH",
"532 413 OFFCURVE",
"656 373 OFFCURVE",
"656 232 CURVE SMOOTH",
"656 125 OFFCURVE",
"547 0 OFFCURVE",
"358 0 CURVE SMOOTH",
"249 0 LINE",
"249 33 LINE",
"331 33 LINE SMOOTH",
"446 33 OFFCURVE",
"543 89 OFFCURVE",
"543 210 CURVE SMOOTH",
"543 309 OFFCURVE",
"454 400 OFFCURVE",
"324 400 CURVE SMOOTH"
);
},
{
closed = 1;
nodes = (
"241 414 LINE",
"241 433 LINE",
"349 433 LINE SMOOTH",
"450 433 OFFCURVE",
"503 496 OFFCURVE",
"503 573 CURVE SMOOTH",
"503 683 OFFCURVE",
"415 731 OFFCURVE",
"324 731 CURVE SMOOTH",
"246 731 LINE",
"246 764 LINE",
"337 764 LINE SMOOTH",
"488 764 OFFCURVE",
"613 725 OFFCURVE",
"613 603 CURVE SMOOTH",
"613 489 OFFCURVE",
"477 414 OFFCURVE",
"365 414 CURVE SMOOTH"
);
}
);
width = 726;
},
{
associatedMasterId = "78BDDC20-0CA0-41A5-B428-980291F99C29";
components = (
{
name = upper_serif.cap;
transform = "{1, 0, 0, 1, 13, 41}";
},
{
name = upper_serif.cap;
transform = "{1, 0, 0, -1, 13, 699}";
}
);
layerId = "17AD7D01-A6AC-4612-B18F-33C9200C93F8";
name = "Oct 27 19, 13:04";
paths = (
{
closed = 1;
nodes = (
"144 740 LINE",
"254 740 LINE",
"254 0 LINE",
"144 0 LINE"
);
},
{
closed = 1;
nodes = (
"254 92 LINE",
"254 54 OFFCURVE",
"287 47 OFFCURVE",
"336 47 CURVE SMOOTH",
"371 47 LINE SMOOTH",
"469 47 OFFCURVE",
"526 106 OFFCURVE",
"526 207 CURVE SMOOTH",
"526 314 OFFCURVE",
"454 369 OFFCURVE",
"352 369 CURVE SMOOTH",
"202 369 LINE",
"201 415 LINE",
"357 415 LINE SMOOTH",
"469 415 OFFCURVE",
"503 493 OFFCURVE",
"503 565 CURVE SMOOTH",
"503 646 OFFCURVE",
"456 694 OFFCURVE",
"349 694 CURVE SMOOTH",
"240 694 LINE",
"240 740 LINE",
"370 740 LINE SMOOTH",
"495 740 OFFCURVE",
"614 692 OFFCURVE",
"614 569 CURVE SMOOTH",
"614 461 OFFCURVE",
"539 416 OFFCURVE",
"451 396 CURVE",
"450 400 LINE",
"565 381 OFFCURVE",
"641 321 OFFCURVE",
"641 209 CURVE SMOOTH",
"641 88 OFFCURVE",
"555 0 OFFCURVE",
"403 0 CURVE SMOOTH",
"192 0 LINE"
);
},
{
closed = 1;
nodes = (
"590 414 OFFCURVE",
"461 340 OFFCURVE",
"310 340 CURVE SMOOTH",
"182 340 LINE",
"182 346 LINE",
"181 346 LINE",
"181 387 LINE",
"273 387 LINE SMOOTH",
"443 387 OFFCURVE",
"480 480 OFFCURVE",
"480 547 CURVE SMOOTH",
"480 641 OFFCURVE",
"412 694 OFFCURVE",
"307 694 CURVE SMOOTH",
"220 694 LINE",
"220 740 LINE",
"338 740 LINE SMOOTH",
"465 740 OFFCURVE",
"590 680 OFFCURVE",
"590 550 CURVE SMOOTH"
);
}
);
width = 701;
},
{
associatedMasterId = "78BDDC20-0CA0-41A5-B428-980291F99C29";
layerId = "235C4AB7-EBD0-47A4-B92F-EA01505A9E62";
name = "Oct 27 19, 13:04";
paths = (
{
closed = 1;
nodes = (
"485 740 OFFCURVE",
"432 694 OFFCURVE",
"327 694 CURVE SMOOTH",
"240 694 LINE",
"240 740 LINE",
"358 740 LINE SMOOTH"
);
}
);
width = 701;
}
);
leftMetricsKey = "=I";
rightMetricsKey = "=70";
unicode = 0042;
},
{
glyphname = C;
lastChange = "2022-01-30 19:41:57 +0000";
layers = (
{
associatedMasterId = "78BDDC20-0CA0-41A5-B428-980291F99C29";
components = (
{
alignment = -1;
name = O;
transform = "{1, 0, 0, 1, -16, 0}";
}
);
layerId = "39FFEE67-A4F2-453F-864C-226C82329744";
name = O;
width = 767;
visible = 1;
},
{
associatedMasterId = "78BDDC20-0CA0-41A5-B428-980291F99C29";
layerId = "88787421-91FD-415B-B68D-23B39CA31F7F";
name = "Oct 22 19, 13:07";
paths = (
{
closed = 1;
nodes = (
"471 750 OFFCURVE",
"550 734 OFFCURVE",
"640 710 CURVE",
"640 522 LINE",
"600 522 LINE",
"563 684 OFFCURVE",
"442 701 OFFCURVE",
"384 701 CURVE SMOOTH",
"172 701 OFFCURVE",
"141 467 OFFCURVE",
"141 369 CURVE SMOOTH",
"141 293 OFFCURVE",
"156 39 OFFCURVE",
"371 39 CURVE",
"471 39 OFFCURVE",
"566 61 OFFCURVE",
"609 217 CURVE",
"641 217 LINE",
"641 46 LINE",
"556 15 OFFCURVE",
"503 -10 OFFCURVE",
"375 -10 CURVE SMOOTH",
"120 -10 OFFCURVE",
"11 193 OFFCURVE",
"11 369 CURVE SMOOTH",
"11 618 OFFCURVE",
"184 750 OFFCURVE",
"379 750 CURVE SMOOTH"
);
}
);
width = 671;
},
{
associatedMasterId = "78BDDC20-0CA0-41A5-B428-980291F99C29";
layerId = "21AC5955-C3C1-46B8-B9AE-73A3F5758B0D";
name = "Regular Oct 31 19, 21:47";
paths = (
{
closed = 1;
nodes = (
"496 750 OFFCURVE",
"543 728 OFFCURVE",
"614 696 CURVE",
"614 518 LINE",
"574 518 LINE",
"561 639 OFFCURVE",
"495 703 OFFCURVE",
"398 703 CURVE SMOOTH",
"234 703 OFFCURVE",
"169 523 OFFCURVE",
"169 369 CURVE SMOOTH",
"169 286 OFFCURVE",
"198 37 OFFCURVE",
"401 37 CURVE SMOOTH",
"513 37 OFFCURVE",
"573 118 OFFCURVE",
"573 229 CURVE",
"617 229 LINE",
"617 29 LINE",
"550 6 OFFCURVE",
"458 -10 OFFCURVE",
"393 -10 CURVE SMOOTH",
"195 -10 OFFCURVE",
"40 157 OFFCURVE",
"40 369 CURVE SMOOTH",
"40 608 OFFCURVE",
"213 750 OFFCURVE",
"404 750 CURVE SMOOTH"
);
}
);
width = 681;
},
{
layerId = "78BDDC20-0CA0-41A5-B428-980291F99C29";
paths = (
{
closed = 1;
nodes = (
"541 774 OFFCURVE",
"647 762 OFFCURVE",
"718 741 CURVE",
"718 592 LINE",
"643 681 OFFCURVE",
"546 732 OFFCURVE",
"464 732 CURVE SMOOTH",
"273 732 OFFCURVE",
"177 584 OFFCURVE",
"177 398 CURVE SMOOTH",
"177 192 OFFCURVE",
"327 44 OFFCURVE",
"500 44 CURVE SMOOTH",
"620 44 OFFCURVE",
"681 119 OFFCURVE",
"729 172 CURVE",
"729 87 LINE",
"674 37 OFFCURVE",
"595 -10 OFFCURVE",
"487 -10 CURVE SMOOTH",
"245 -10 OFFCURVE",
"60 158 OFFCURVE",
"60 374 CURVE SMOOTH",
"60 578 OFFCURVE",
"218 774 OFFCURVE",
"477 774 CURVE SMOOTH"
);
}
);
width = 799;
},
{
associatedMasterId = "78BDDC20-0CA0-41A5-B428-980291F99C29";
layerId = "A35E3994-297B-4CAE-9CA2-A406BE81641B";
name = "Sep 29 21, 18:01";
paths = (
{
closed = 1;
nodes = (
"488 740 OFFCURVE",
"545 709 OFFCURVE",
"615 707 CURVE",
"615 500 LINE",
"577 500 LINE",
"564 611 OFFCURVE",
"506 694 OFFCURVE",
"386 694 CURVE SMOOTH",
"214 694 OFFCURVE",
"171 487 OFFCURVE",
"171 381 CURVE SMOOTH",
"171 223 OFFCURVE",
"266 62 OFFCURVE",
"418 62 CURVE SMOOTH",
"512 62 OFFCURVE",
"569 109 OFFCURVE",
"618 176 CURVE",
"642 166 LINE",
"601 49 OFFCURVE",
"496 -15 OFFCURVE",
"385 -15 CURVE SMOOTH",
"185 -15 OFFCURVE",
"50 131 OFFCURVE",
"50 362 CURVE SMOOTH",
"50 604 OFFCURVE",
"224 740 OFFCURVE",
"390 740 CURVE SMOOTH"
);
}
);
width = 682;
},
{
associatedMasterId = "78BDDC20-0CA0-41A5-B428-980291F99C29";
layerId = "E3189AA7-CA01-4981-8178-2AD61B934C19";
name = "Oct 6 21, 19:00";
paths = (
{
closed = 1;
nodes = (
"511 740 OFFCURVE",
"601 722 OFFCURVE",
"667 706 CURVE",
"667 566 LINE",
"619 566 LINE",
"594 655 OFFCURVE",
"517 691 OFFCURVE",
"434 691 CURVE SMOOTH",
"277 691 OFFCURVE",
"143 584 OFFCURVE",
"143 392 CURVE SMOOTH",
"143 192 OFFCURVE",
"277 38 OFFCURVE",
"467 38 CURVE SMOOTH",
"590 38 OFFCURVE",
"624 105 OFFCURVE",
"641 158 CURVE",
"676 158 LINE",
"675 20 LINE",
"608 2 OFFCURVE",
"513 -15 OFFCURVE",
"434 -15 CURVE SMOOTH",
"200 -15 OFFCURVE",
"50 131 OFFCURVE",
"50 362 CURVE SMOOTH",
"50 606 OFFCURVE",
"236 740 OFFCURVE",
"437 740 CURVE SMOOTH"
);
}
);
width = 721;
},
{
associatedMasterId = "78BDDC20-0CA0-41A5-B428-980291F99C29";
layerId = "1B5771C4-54E1-490E-8941-29C4A2792ACF";
name = "Nov 1 21, 15:03";
paths = (
{
closed = 1;
nodes = (
"503 740 OFFCURVE",
"594 735 OFFCURVE",
"665 706 CURVE",
"665 562 LINE",
"622 562 LINE",
"622 651 OFFCURVE",
"548 698 OFFCURVE",
"445 698 CURVE SMOOTH",
"272 698 OFFCURVE",
"143 584 OFFCURVE",
"143 392 CURVE SMOOTH",
"143 192 OFFCURVE",
"266 30 OFFCURVE",
"467 30 CURVE SMOOTH",
"566 30 OFFCURVE",
"643 81 OFFCURVE",
"643 182 CURVE",
"683 182 LINE",
"682 25 LINE",
"619 4 OFFCURVE",
"533 -15 OFFCURVE",
"435 -15 CURVE SMOOTH",
"193 -15 OFFCURVE",
"50 131 OFFCURVE",
"50 362 CURVE SMOOTH",
"50 606 OFFCURVE",
"236 740 OFFCURVE",
"455 740 CURVE SMOOTH"
);
}
);
width = 728;
},
{
associatedMasterId = "78BDDC20-0CA0-41A5-B428-980291F99C29";
layerId = "B6F48A68-5095-449D-9F76-DD34A787839C";
name = "Nov 16 21, 18:14";
paths = (
{
closed = 1;
nodes = (
"503 740 OFFCURVE",
"594 735 OFFCURVE",
"665 706 CURVE",
"665 542 LINE",
"632 542 LINE",
"562 670 LINE",
"520 691 OFFCURVE",
"480 698 OFFCURVE",
"445 698 CURVE SMOOTH",
"272 698 OFFCURVE",
"143 584 OFFCURVE",
"143 392 CURVE SMOOTH",
"143 192 OFFCURVE",
"266 30 OFFCURVE",
"467 30 CURVE SMOOTH",
"492 30 OFFCURVE",
"566 33 OFFCURVE",
"588 40 CURVE",
"643 212 LINE",
"683 212 LINE",
"682 25 LINE",
"619 4 OFFCURVE",
"533 -15 OFFCURVE",
"435 -15 CURVE SMOOTH",
"193 -15 OFFCURVE",
"50 131 OFFCURVE",
"50 362 CURVE SMOOTH",
"50 606 OFFCURVE",
"236 740 OFFCURVE",
"455 740 CURVE SMOOTH"
);
}
);
width = 743;
},
{
associatedMasterId = "78BDDC20-0CA0-41A5-B428-980291F99C29";
layerId = "3B435651-3B75-453E-B1E7-4E6DB2C4C6EE";
name = "Dec 27 21, 12:52";
paths = (
{
closed = 1;
nodes = (
"513 740 OFFCURVE",
"604 735 OFFCURVE",
"675 706 CURVE",
"675 542 LINE",
"662 542 LINE",
"639 585 OFFCURVE",
"612 639 OFFCURVE",
"572 670 CURVE SMOOTH",
"537 697 OFFCURVE",
"490 698 OFFCURVE",
"455 698 CURVE SMOOTH",
"272 698 OFFCURVE",
"143 584 OFFCURVE",
"143 392 CURVE SMOOTH",
"143 192 OFFCURVE",
"266 30 OFFCURVE",
"477 30 CURVE SMOOTH",
"529 30 OFFCURVE",
"590 45 OFFCURVE",
"617 87 CURVE SMOOTH",
"636 117 OFFCURVE",
"655 155 OFFCURVE",
"673 212 CURVE",
"693 212 LINE",
"692 25 LINE",
"629 4 OFFCURVE",
"543 -15 OFFCURVE",
"445 -15 CURVE SMOOTH",
"193 -15 OFFCURVE",
"50 131 OFFCURVE",
"50 362 CURVE SMOOTH",
"50 606 OFFCURVE",
"236 740 OFFCURVE",
"465 740 CURVE SMOOTH"
);
}
);
width = 753;
},
{
associatedMasterId = "78BDDC20-0CA0-41A5-B428-980291F99C29";
layerId = "48BBF8E7-4C28-45F0-BB7C-AFADF144316F";
name = "Jan 28 22, 11:46";
paths = (
{
closed = 1;
nodes = (
"537 774 OFFCURVE",
"643 766 OFFCURVE",
"714 750 CURVE",
"714 620 LINE",
"649 703 OFFCURVE",
"537 732 OFFCURVE",
"441 732 CURVE SMOOTH",
"269 732 OFFCURVE",
"172 584 OFFCURVE",
"172 398 CURVE SMOOTH",
"172 192 OFFCURVE",
"333 38 OFFCURVE",
"511 38 CURVE SMOOTH",
"596 38 OFFCURVE",
"663 84 OFFCURVE",
"722 153 CURVE",
"721 34 LINE",
"658 6 OFFCURVE",
"548 -10 OFFCURVE",
"497 -10 CURVE SMOOTH",
"241 -10 OFFCURVE",
"60 146 OFFCURVE",
"60 362 CURVE SMOOTH",
"60 566 OFFCURVE",
"214 774 OFFCURVE",
"473 774 CURVE SMOOTH"
);
}
);
width = 792;
},
{
associatedMasterId = "78BDDC20-0CA0-41A5-B428-980291F99C29";
layerId = "D35EC7C4-6AB0-4E85-B920-B87800D4A745";
name = "Jan 28 22, 11:46";
paths = (
{
closed = 1;
nodes = (
"537 774 OFFCURVE",
"643 766 OFFCURVE",
"714 750 CURVE",
"714 620 LINE",
"649 703 OFFCURVE",
"537 732 OFFCURVE",
"441 732 CURVE SMOOTH",
"269 732 OFFCURVE",
"172 584 OFFCURVE",
"172 398 CURVE SMOOTH",
"172 192 OFFCURVE",
"333 38 OFFCURVE",
"511 38 CURVE SMOOTH",
"596 38 OFFCURVE",
"663 84 OFFCURVE",
"722 153 CURVE",
"721 34 LINE",
"658 6 OFFCURVE",
"548 -10 OFFCURVE",
"497 -10 CURVE SMOOTH",
"241 -10 OFFCURVE",
"60 146 OFFCURVE",
"60 362 CURVE SMOOTH",
"60 566 OFFCURVE",
"214 774 OFFCURVE",
"473 774 CURVE SMOOTH"
);
}
);
width = 792;
},
{
associatedMasterId = "78BDDC20-0CA0-41A5-B428-980291F99C29";
layerId = "1D91B342-0911-4AB6-B47B-E59852D1FA92";
name = "Jan 28 22, 11:48";
paths = (
{
closed = 1;
nodes = (
"537 774 OFFCURVE",
"643 762 OFFCURVE",
"714 738 CURVE",
"714 606 LINE",
"639 695 OFFCURVE",
"537 732 OFFCURVE",
"460 732 CURVE SMOOTH",
"269 732 OFFCURVE",
"172 584 OFFCURVE",
"172 398 CURVE SMOOTH",
"172 192 OFFCURVE",
"333 38 OFFCURVE",
"511 38 CURVE SMOOTH",
"596 38 OFFCURVE",
"663 84 OFFCURVE",
"722 153 CURVE",
"721 34 LINE",
"658 6 OFFCURVE",
"548 -10 OFFCURVE",
"497 -10 CURVE SMOOTH",
"241 -10 OFFCURVE",
"60 146 OFFCURVE",
"60 362 CURVE SMOOTH",
"60 566 OFFCURVE",
"214 774 OFFCURVE",
"473 774 CURVE SMOOTH"
);
}
);
width = 792;
}
);
leftMetricsKey = "=O";
rightMetricsKey = "=70";
unicode = 0043;
},
{
glyphname = D;
lastChange = "2022-01-30 21:59:30 +0000";
layers = (
{
components = (
{
name = upper_serif.cap;
transform = "{-1, 0, 0, -1, 367, 764}";
},
{
name = upper_serif.cap;
transform = "{-1, 0, 0, 1, 367, 0}";
}
);
layerId = "78BDDC20-0CA0-41A5-B428-980291F99C29";
paths = (
{
closed = 1;
nodes = (
"238 731 LINE",
"238 764 LINE",
"345 764 LINE SMOOTH",
"615 764 OFFCURVE",
"795 633 OFFCURVE",
"795 417 CURVE SMOOTH",
"795 208 OFFCURVE",
"634 0 OFFCURVE",
"336 0 CURVE SMOOTH",
"236 0 LINE",
"236 33 LINE",
"330 33 LINE SMOOTH",
"520 33 OFFCURVE",
"677 118 OFFCURVE",
"677 383 CURVE SMOOTH",
"677 579 OFFCURVE",
"546 731 OFFCURVE",
"294 731 CURVE SMOOTH"
);
},
{
closed = 1;
nodes = (
"139 764 LINE",
"249 764 LINE",
"249 0 LINE",
"139 0 LINE"
);
}
);
width = 875;
},
{
associatedMasterId = "78BDDC20-0CA0-41A5-B428-980291F99C29";
components = (
{
alignment = -1;
name = B;
transform = "{1, 0, 0, 1, -38, 0}";
}
);
layerId = "4560B7E5-24BA-443A-8003-00246CCD4812";
name = "Oct 11 19, 11:41";
width = 703;
},
{
associatedMasterId = "78BDDC20-0CA0-41A5-B428-980291F99C29";
components = (
{
alignment = -1;
name = O;
transform = "{1, 0, 0, 1, -51, 0}";
}
);
layerId = "04BB1D3B-ADAA-4BB6-923C-101DE1A958F5";
name = "Oct 27 19, 12:57";
width = 892;
visible = 1;
}
);
leftMetricsKey = "=50";
rightMetricsKey = "=80";
unicode = 0044;
},
{
glyphname = E;
lastChange = "2022-01-30 22:03:12 +0000";
layers = (
{
anchors = (
{
name = ogonek;
position = "{628, 10}";
},
{
name = topleft;
position = "{145, 690}";
}
);
components = (
{
name = upper_serif.cap;
transform = "{-1, 0, 0, 1, 412, 0}";
},
{
name = upper_serif.cap;
transform = "{-1, 0, 0, -1, 412, 764}";
}
);
layerId = "78BDDC20-0CA0-41A5-B428-980291F99C29";
paths = (
{
closed = 1;
nodes = (
"294 423 LINE",
"634 423 LINE",
"634 382 LINE",
"294 382 LINE"
);
},
{
closed = 1;
nodes = (
"184 764 LINE",
"294 764 LINE",
"294 0 LINE",
"184 0 LINE"
);
},
{
closed = 1;
nodes = (
"520 41 LINE",
"637 170 LINE",
"637 0 LINE",
"277 0 LINE",
"277 41 LINE"
);
},
{
closed = 1;
nodes = (
"256 764 LINE",
"630 764 LINE",
"630 624 LINE",
"508 723 LINE",
"256 723 LINE"
);
}
);
width = 732;
},
{
anchors = (
{
name = ogonek;
position = "{548, 10}";
},
{
name = topleft;
position = "{65, 690}";
}
);
associatedMasterId = "78BDDC20-0CA0-41A5-B428-980291F99C29";
components = (
{
name = upper_serif.cap;
transform = "{1, 0, 0, 1, 6, 41}";
},
{
name = upper_serif.cap;
transform = "{1, 0, 0, -1, 6, 699}";
},
{
name = stem_upp;
transform = "{1, 0, 0, 1, 16, 0}";
}
);
layerId = "9486AD0F-6C8B-4495-8617-00DE8757B6E0";
name = "May 5 19, 16:46";
paths = (
{
closed = 1;
nodes = (
"235 397 LINE",
"361 397 LINE SMOOTH",
"428 397 OFFCURVE",
"437 430 OFFCURVE",
"444 493 CURVE",
"473 493 LINE",
"473 255 LINE",
"444 255 LINE",
"433 323 OFFCURVE",
"429 352 OFFCURVE",
"366 352 CURVE SMOOTH",
"235 352 LINE"
);
},
{
closed = 1;
nodes = (
"235 740 LINE",
"582 740 LINE",
"601 520 LINE",
"567 520 LINE",
"549 572 LINE SMOOTH",
"513 677 OFFCURVE",
"452 695 OFFCURVE",
"335 695 CURVE SMOOTH",
"235 695 LINE"
);
},
{
closed = 1;
nodes = (
"356 45 LINE SMOOTH",
"489 45 OFFCURVE",
"534 81 OFFCURVE",
"566 204 CURVE SMOOTH",
"581 262 LINE",
"614 262 LINE",
"595 0 LINE",
"235 0 LINE",
"235 45 LINE"
);
}
);
width = 684;
},
{
associatedMasterId = "78BDDC20-0CA0-41A5-B428-980291F99C29";
components = (
{
alignment = -1;
name = B;
transform = "{1, 0, 0, 1, 38, 0}";
}
);
layerId = "ABC544EA-BBB0-425B-8307-F135556B0CFA";
name = "Oct 16 19, 22:12";
width = 824;
visible = 1;
},
{
anchors = (
{
name = ogonek;
position = "{562, 10}";
},
{
name = topleft;
position = "{79, 690}";
}
);
associatedMasterId = "78BDDC20-0CA0-41A5-B428-980291F99C29";
components = (
{
name = upper_serif.cap;
transform = "{1, 0, 0, 1, 16, 26}";
},
{
name = upper_serif.cap;
transform = "{1, 0, 0, -1, 16, 699}";
}
);
layerId = "E5FDEC15-CB60-4BDC-9B6A-E51BDB3F1630";
name = "Jul 14 20, 14:14";
paths = (
{
closed = 1;
nodes = (
"147 725 LINE",
"251 725 LINE",
"251 0 LINE",
"147 0 LINE"
);
},
{
closed = 1;
nodes = (
"251 397 LINE",
"369 397 LINE SMOOTH",
"429 397 OFFCURVE",
"441 433 OFFCURVE",
"445 503 CURVE",
"483 503 LINE",
"483 241 LINE",
"445 241 LINE",
"437 316 OFFCURVE",
"430 348 OFFCURVE",
"374 348 CURVE SMOOTH",
"251 348 LINE"
);
},
{
closed = 1;
nodes = (
"147 725 LINE",
"251 725 LINE",
"251 137 LINE SMOOTH",
"251 64 OFFCURVE",
"295 55 OFFCURVE",
"357 55 CURVE SMOOTH",
"440 55 LINE SMOOTH",
"526 55 OFFCURVE",
"549 106 OFFCURVE",
"565 220 CURVE",
"599 220 LINE",
"599 0 LINE",
"147 0 LINE"
);
},
{
closed = 1;
nodes = (
"589 725 LINE",
"589 525 LINE",
"555 525 LINE",
"539 619 OFFCURVE",
"516 670 OFFCURVE",
"432 670 CURVE SMOOTH",
"251 670 LINE",
"251 0 LINE",
"147 0 LINE",
"147 725 LINE"
);
}
);
width = 664;
},
{
anchors = (
{
name = ogonek;
position = "{560, 10}";
},
{
name = topleft;
position = "{77, 690}";
}
);
associatedMasterId = "78BDDC20-0CA0-41A5-B428-980291F99C29";
components = (
{
name = upper_serif.cap;
transform = "{1, 0, 0, 1, 4, 26}";
},
{
name = upper_serif.cap;
transform = "{1, 0, 0, -1, 4, 699}";
}
);
layerId = "6E9FCEEE-D76C-4CE8-B33C-C7F7F403E6AA";
name = "Apr 14 21, 15:04";
paths = (
{
closed = 1;
nodes = (
"135 725 LINE",
"239 725 LINE",
"239 0 LINE",
"135 0 LINE"
);
},
{
closed = 1;
nodes = (
"239 397 LINE",
"377 397 LINE SMOOTH",
"437 397 OFFCURVE",
"449 433 OFFCURVE",
"453 503 CURVE",
"491 503 LINE",
"491 241 LINE",
"453 241 LINE",
"445 316 OFFCURVE",
"438 348 OFFCURVE",
"382 348 CURVE SMOOTH",
"239 348 LINE"
);
},
{
closed = 1;
nodes = (
"135 725 LINE",
"239 725 LINE",
"239 76 OFFCURVE",
"204 55 OFFCURVE",
"219 55 CURVE SMOOTH",
"448 55 LINE SMOOTH",
"534 55 OFFCURVE",
"557 106 OFFCURVE",
"573 220 CURVE",
"607 220 LINE",
"607 0 LINE",
"135 0 LINE"
);
},
{
closed = 1;
nodes = (
"597 725 LINE",
"597 525 LINE",
"563 525 LINE",
"547 619 OFFCURVE",
"524 675 OFFCURVE",
"440 675 CURVE SMOOTH",
"239 675 LINE",
"239 0 LINE",
"135 0 LINE",
"135 725 LINE"
);
}
);
width = 682;
},
{
anchors = (
{
name = ogonek;
position = "{584, 10}";
},
{
name = topleft;
position = "{101, 690}";
}
);
associatedMasterId = "78BDDC20-0CA0-41A5-B428-980291F99C29";
components = (
{
name = upper_serif.cap;
transform = "{1, 0, 0, 1, 24, 26}";
},
{
name = upper_serif.cap;
transform = "{1, 0, 0, -1, 24, 699}";
}
);
layerId = "7ACB89F8-0F59-4E83-90AD-67ABABF6335B";
name = "Sep 7 21, 11:45";
paths = (
{
closed = 1;
nodes = (
"263 396 LINE",
"478 396 LINE",
"496 492 LINE",
"535 492 LINE",
"535 245 LINE",
"496 245 LINE",
"478 349 LINE",
"263 349 LINE"
);
},
{
closed = 1;
nodes = (
"243 44 LINE",
"437 51 LINE SMOOTH",
"560 55 OFFCURVE",
"593 81 OFFCURVE",
"618 207 CURVE",
"655 207 LINE",
"638 0 LINE",
"155 0 LINE"
);
},
{
closed = 1;
nodes = (
"618 725 LINE",
"618 537 LINE",
"583 537 LINE",
"567 636 OFFCURVE",
"537 683 OFFCURVE",
"419 683 CURVE SMOOTH",
"263 683 LINE",
"263 0 LINE",
"155 0 LINE",
"155 725 LINE"
);
}
);
width = 730;
},
{
anchors = (
{
name = ogonek;
position = "{579, 10}";
},
{
name = topleft;
position = "{96, 690}";
}
);
associatedMasterId = "78BDDC20-0CA0-41A5-B428-980291F99C29";
components = (
{
name = upper_serif.cap;
transform = "{1, 0, 0, 1, 19, 26}";
},
{
name = upper_serif.cap;
transform = "{1, 0, 0, -1, 19, 699}";
}
);
layerId = "1F51B8E1-7313-4808-BBED-B1B8DF9EAC3B";
name = "Sep 29 21, 11:19";
paths = (
{
closed = 1;
nodes = (
"245 411 LINE",
"446 411 LINE",
"446 497 LINE",
"500 497 LINE",
"500 281 LINE",
"446 281 LINE",
"446 367 LINE",
"245 367 LINE"
);
},
{
closed = 1;
nodes = (
"401 49 LINE SMOOTH",
"491 49 OFFCURVE",
"558 75 OFFCURVE",
"586 146 CURVE",
"617 146 LINE",
"617 0 LINE",
"210 0 LINE",
"210 49 LINE"
);
},
{
closed = 1;
nodes = (
"210 725 LINE",
"616 725 LINE",
"616 588 LINE",
"588 588 LINE",
"566 643 OFFCURVE",
"509 676 OFFCURVE",
"409 676 CURVE SMOOTH",
"210 676 LINE"
);
},
{
closed = 1;
nodes = (
"150 725 LINE",
"245 725 LINE",
"245 0 LINE",
"150 0 LINE"
);
}
);
width = 692;
},
{
anchors = (
{
name = ogonek;
position = "{569, 10}";
},
{
name = topleft;
position = "{86, 690}";
}
);
associatedMasterId = "78BDDC20-0CA0-41A5-B428-980291F99C29";
components = (
{
name = upper_serif.cap;
transform = "{1, 0, 0, 1, 9, 26}";
},
{
name = upper_serif.cap;
transform = "{1, 0, 0, -1, 9, 699}";
}
);
layerId = "99FA8905-61AE-4A9C-BAEA-5D8B1E20BF0C";
name = "Oct 6 21, 14:59";
paths = (
{
closed = 1;
nodes = (
"235 402 LINE",
"450 402 LINE",
"450 488 LINE",
"497 488 LINE",
"497 272 LINE",
"450 272 LINE",
"450 358 LINE",
"235 358 LINE"
);
},
{
closed = 1;
nodes = (
"140 725 LINE",
"235 725 LINE",
"235 0 LINE",
"140 0 LINE"
);
},
{
closed = 1;
nodes = (
"202 725 LINE",
"524 725 LINE",
"524 615 LINE",
"481 615 LINE",
"471 651 OFFCURVE",
"456 684 OFFCURVE",
"352 684 CURVE SMOOTH",
"202 684 LINE"
);
},
{
closed = 1;
nodes = (
"349 41 LINE SMOOTH",
"470 41 OFFCURVE",
"496 89 OFFCURVE",
"506 136 CURVE",
"549 136 LINE",
"549 0 LINE",
"227 0 LINE",
"227 41 LINE"
);
}
);
width = 614;
},
{
anchors = (
{
name = ogonek;
position = "{574, 10}";
},
{
name = topleft;
position = "{91, 690}";
}
);
associatedMasterId = "78BDDC20-0CA0-41A5-B428-980291F99C29";
components = (
{
name = upper_serif.cap;
transform = "{1, 0, 0, 1, 11, 26}";
},
{
name = upper_serif.cap;
transform = "{1, 0, 0, -1, 11, 699}";
}
);
layerId = "AC2FBCC7-6471-4DD7-BCD5-BE463AD61994";
name = "Dec 27 21, 13:05";
paths = (
{
closed = 1;
nodes = (
"240 401 LINE",
"440 401 LINE SMOOTH",
"470 401 OFFCURVE",
"479 414 OFFCURVE",
"479 437 CURVE SMOOTH",
"479 451 OFFCURVE",
"479 464 OFFCURVE",
"479 477 CURVE",
"520 477 LINE",
"520 284 LINE",
"479 284 LINE",
"479 293 OFFCURVE",
"479 306 OFFCURVE",
"479 325 CURVE SMOOTH",
"479 346 OFFCURVE",
"470 360 OFFCURVE",
"440 360 CURVE SMOOTH",
"240 360 LINE"
);
},
{
closed = 1;
nodes = (
"142 725 LINE",
"240 725 LINE",
"240 0 LINE",
"142 0 LINE"
);
},
{
closed = 1;
nodes = (
"407 41 LINE SMOOTH",
"508 41 OFFCURVE",
"532 84 OFFCURVE",
"532 170 CURVE",
"573 170 LINE",
"573 0 LINE",
"223 0 LINE",
"223 41 LINE"
);
},
{
closed = 1;
nodes = (
"202 725 LINE",
"520 725 LINE",
"520 582 LINE",
"479 582 LINE",
"479 654 OFFCURVE",
"456 684 OFFCURVE",
"381 684 CURVE SMOOTH",
"202 684 LINE"
);
}
);
width = 638;
}
);
leftMetricsKey = "=95";
rightMetricsKey = "=95";
unicode = 0045;
},
{
glyphname = F;
lastChange = "2022-01-30 22:03:45 +0000";
layers = (
{
components = (
{
name = upper_serif.cap;
transform = "{-1, 0, 0, -1, 372, 764}";
},
{
name = upper_serif.cap;
transform = "{-1, 0, 0, 1, 372, 0}";
},
{
name = _serif_cap_long;
transform = "{1, 0, 0, 1, 26, 0}";
}
);
layerId = "78BDDC20-0CA0-41A5-B428-980291F99C29";
paths = (
{
closed = 1;
nodes = (
"254 764 LINE",
"254 0 LINE",
"144 0 LINE",
"144 764 LINE"
);
},
{
closed = 1;
nodes = (
"254 416 LINE",
"561 416 LINE",
"561 375 LINE",
"254 375 LINE"
);
},
{
closed = 1;
nodes = (
"186 764 LINE",
"560 764 LINE",
"560 624 LINE",
"438 723 LINE",
"186 723 LINE"
);
}
);
width = 626;
},
{
associatedMasterId = "78BDDC20-0CA0-41A5-B428-980291F99C29";
components = (
{
name = upper_serif.cap;
transform = "{1, 0, 0, 1, 26, 2}";
},
{
name = upper_serif.cap;
transform = "{-1, 0, 0, -1, 372, 762}";
},
{
name = upper_serif.cap;
transform = "{-1, 0, 0, 1, 372, 2}";
}
);
layerId = "678D8D62-BF02-4F9A-8075-A1C0F8DFF78B";
name = "Jan 28 22, 11:54";
paths = (
{
closed = 1;
nodes = (
"254 764 LINE",
"254 0 LINE",
"144 0 LINE",
"144 764 LINE"
);
},
{
closed = 1;
nodes = (
"254 416 LINE",
"469 416 LINE",
"508 416 LINE",
"508 492 LINE",
"544 492 LINE",
"544 299 LINE",
"508 299 LINE",
"508 375 LINE",
"469 375 LINE",
"254 375 LINE"
);
},
{
closed = 1;
nodes = (
"216 764 LINE",
"552 764 LINE",
"552 621 LINE",
"466 723 LINE",
"216 723 LINE"
);
}
);
width = 647;
}
);
leftMetricsKey = "=N";
rightMetricsKey = "=65";
unicode = 0046;
},
{
glyphname = G;
lastChange = "2022-01-27 13:41:19 +0000";
layers = (
{
components = (
{
name = upper_serif.cap;
transform = "{1, 0, 0, 1, 425, -374}";
}
);
layerId = "78BDDC20-0CA0-41A5-B428-980291F99C29";
paths = (
{
closed = 1;
nodes = (
"648 279 LINE",
"662 279 LINE",
"663 325 LINE",
"740 325 LINE",
"740 292 LINE",
"695 287 OFFCURVE",
"663 273 OFFCURVE",
"663 220 CURVE",
"648 260 LINE"
);
},
{
closed = 1;
nodes = (
"60 614 OFFCURVE",
"233 750 OFFCURVE",
"424 750 CURVE SMOOTH",
"527 750 OFFCURVE",
"588 731 OFFCURVE",
"659 703 CURVE",
"659 488 LINE",
"619 488 LINE",
"606 639 OFFCURVE",
"526 703 OFFCURVE",
"420 703 CURVE SMOOTH",
"219 703 OFFCURVE",
"189 477 OFFCURVE",
"189 369 CURVE SMOOTH",
"189 286 OFFCURVE",
"210 38 OFFCURVE",
"429 38 CURVE SMOOTH",
"475 38 OFFCURVE",
"521 43 OFFCURVE",
"556 55 CURVE",
"556 325 LINE",
"663 325 LINE",
"663 33 LINE",
"569 -1 OFFCURVE",
"471 -10 OFFCURVE",
"415 -10 CURVE SMOOTH",
"190 -10 OFFCURVE",
"60 146 OFFCURVE",
"60 369 CURVE SMOOTH"
);
}
);
width = 782;
}
);
leftMetricsKey = "=O";
rightMetricsKey = "=40";
unicode = 0047;
},
{
glyphname = H;
lastChange = "2022-01-30 19:32:40 +0000";
layers = (
{
components = (
{
name = upper_serif.cap;
transform = "{1, 0, 0, -1, 31, 764}";
},
{
name = upper_serif.cap;
transform = "{-1, 0, 0, -1, 377, 764}";
},
{
name = upper_serif.cap;
transform = "{1, 0, 0, 1, 31, 0}";
},
{
name = upper_serif.cap;
transform = "{-1, 0, 0, 1, 377, 0}";
},
{
name = upper_serif.cap;
transform = "{1, 0, 0, -1, 633, 764}";
},
{
name = upper_serif.cap;
transform = "{-1, 0, 0, -1, 979, 764}";
},
{
name = upper_serif.cap;
transform = "{1, 0, 0, 1, 633, 0}";
},
{
name = upper_serif.cap;
transform = "{-1, 0, 0, 1, 979, 0}";
}
);
layerId = "78BDDC20-0CA0-41A5-B428-980291F99C29";
paths = (
{
closed = 1;
nodes = (
"784 417 LINE",
"784 373 LINE",
"229 373 LINE",
"229 417 LINE"
);
},
{
closed = 1;
nodes = (
"149 764 LINE",
"259 764 LINE",
"259 0 LINE",
"149 0 LINE"
);
},
{
closed = 1;
nodes = (
"751 764 LINE",
"861 764 LINE",
"861 0 LINE",
"751 0 LINE"
);
}
);
width = 1010;
}
);
leftMetricsKey = "=60";
rightMetricsKey = "=60";
unicode = 0048;
},
{
glyphname = I;
lastChange = "2022-01-30 17:23:53 +0000";
layers = (
{
components = (
{
name = upper_serif.cap;
transform = "{1, 0, 0, 1, 41, 0}";
},
{
name = upper_serif.cap;
transform = "{1, 0, 0, -1, 41, 764}";
},
{
name = upper_serif.cap;
transform = "{-1, 0, 0, 1, 387, 0}";
},
{
name = upper_serif.cap;
transform = "{-1, 0, 0, -1, 387, 764}";
}
);
layerId = "78BDDC20-0CA0-41A5-B428-980291F99C29";
paths = (
{
closed = 1;
nodes = (
"159 764 LINE",
"269 764 LINE",
"269 0 LINE",
"159 0 LINE"
);
}
);
width = 428;
}
);
leftMetricsKey = "=70";
rightMetricsKey = "=70";
unicode = 0049;
},
{
glyphname = K;
lastChange = "2022-01-27 13:41:19 +0000";
layers = (
{
components = (
{
name = upper_serif.cap;
transform = "{1, 0, 0, 1, -25, 41}";
},
{
name = upper_serif.cap;
transform = "{1, 0, 0, -1, -25, 699}";
},
{
name = upper_serif.cap;
transform = "{-1, 0, 0, 1, 347, 41}";
},
{
name = upper_serif.cap;
transform = "{-1, 0, 0, -1, 347, 699}";
}
);
layerId = "78BDDC20-0CA0-41A5-B428-980291F99C29";
paths = (
{
closed = 1;
nodes = (
"106 740 LINE",
"216 740 LINE",
"216 0 LINE",
"106 0 LINE"
);
},
{
closed = 1;
nodes = (
"571 707 OFFCURVE",
"491 585 OFFCURVE",
"410 496 CURVE SMOOTH",
"314 391 OFFCURVE",
"218 323 OFFCURVE",
"153 266 CURVE",
"163 330 LINE",
"216 371 OFFCURVE",
"281 416 OFFCURVE",
"353 490 CURVE SMOOTH",
"414 553 OFFCURVE",
"470 631 OFFCURVE",
"471 678 CURVE SMOOTH",
"471 699 OFFCURVE",
"455 707 OFFCURVE",
"428 707 CURVE",
"428 740 LINE",
"647 740 LINE",
"647 707 LINE"
);
},
{
closed = 1;
nodes = (
"330 443 LINE",
"623 61 LINE",
"644 42 OFFCURVE",
"664 33 OFFCURVE",
"697 33 CURVE",
"697 0 LINE",
"518 0 LINE",
"251 362 LINE"
);
}
);
width = 727;
},
{
associatedMasterId = "78BDDC20-0CA0-41A5-B428-980291F99C29";
components = (
{
name = upper_serif.cap;
transform = "{1, 0, 0, 1, -7, 41}";
},
{
name = upper_serif.cap;
transform = "{1, 0, 0, -1, -7, 699}";
},
{
name = upper_serif.cap;
transform = "{-1, 0, 0, 1, 365, 41}";
},
{
name = upper_serif.cap;
transform = "{-1, 0, 0, -1, 365, 699}";
}
);
layerId = "806A8166-CC39-4411-9968-CEA2814EA334";
name = "Nov 1 19, 12:30";
paths = (
{
closed = 1;
nodes = (
"124 740 LINE",
"234 740 LINE",
"234 0 LINE",
"124 0 LINE"
);
},
{
closed = 1;
nodes = (
"250 399 LINE SMOOTH",
"272 399 OFFCURVE",
"285 419 OFFCURVE",
"305 441 CURVE SMOOTH",
"476 635 LINE SMOOTH",
"514 678 OFFCURVE",
"507 707 OFFCURVE",
"450 707 CURVE",
"450 740 LINE",
"665 740 LINE",
"665 707 LINE",
"624 707 OFFCURVE",
"586 696 OFFCURVE",
"556 661 CURVE SMOOTH",
"308 369 LINE",
"335 434 LINE",
"622 61 LINE",
"643 42 OFFCURVE",
"663 33 OFFCURVE",
"696 33 CURVE",
"696 0 LINE",
"517 0 LINE",
"288 320 LINE SMOOTH",
"270 346 OFFCURVE",
"263 362 OFFCURVE",
"230 362 CURVE",
"230 399 LINE"
);
}
);
width = 726;
},
{
associatedMasterId = "78BDDC20-0CA0-41A5-B428-980291F99C29";
components = (
{
name = upper_serif.cap;
transform = "{1, 0, 0, 1, -7, 41}";
},
{
name = upper_serif.cap;
transform = "{1, 0, 0, -1, -7, 699}";
},
{
name = upper_serif.cap;
transform = "{-1, 0, 0, 1, 365, 41}";
},
{
name = upper_serif.cap;
transform = "{-1, 0, 0, -1, 365, 699}";
}
);
layerId = "EE9C67DA-93D4-4F7F-8F26-54BC72FF07FE";
name = "Nov 3 19, 21:39";
paths = (
{
closed = 1;
nodes = (
"124 740 LINE",
"234 740 LINE",
"234 0 LINE",
"124 0 LINE"
);
},
{
closed = 1;
nodes = (
"219 292 LINE",
"229 362 LINE",
"476 635 LINE SMOOTH",
"515 679 OFFCURVE",
"507 707 OFFCURVE",
"450 707 CURVE",
"450 740 LINE",
"665 740 LINE",
"665 707 LINE",
"624 707 OFFCURVE",
"587 695 OFFCURVE",
"556 661 CURVE SMOOTH"
);
},
{
closed = 1;
nodes = (
"348 443 LINE",
"641 61 LINE",
"662 42 OFFCURVE",
"682 33 OFFCURVE",
"715 33 CURVE",
"715 0 LINE",
"536 0 LINE",
"269 362 LINE"
);
}
);
width = 745;
visible = 1;
}
);
leftMetricsKey = "=30";
rightMetricsKey = "=30";
unicode = 004B;
},
{
glyphname = L;
lastChange = "2022-01-30 17:23:59 +0000";
layers = (
{
components = (
{
name = upper_serif.cap;
transform = "{1, 0, 0, -1, 51, 764}";
},
{
name = upper_serif.cap;
transform = "{-1, 0, 0, 1, 397, 0}";
},
{
name = upper_serif.cap;
transform = "{-1, 0, 0, -1, 397, 764}";
}
);
layerId = "78BDDC20-0CA0-41A5-B428-980291F99C29";
paths = (
{
closed = 1;
nodes = (
"169 764 LINE",
"279 764 LINE",
"279 37 LINE",
"279 0 LINE",
"169 0 LINE"
);
},
{
closed = 1;
nodes = (
"520 41 LINE",
"607 200 LINE",
"607 0 LINE",
"252 0 LINE",
"252 41 LINE"
);
}
);
width = 687;
},
{
associatedMasterId = "78BDDC20-0CA0-41A5-B428-980291F99C29";
components = (
{
alignment = -1;
name = B;
transform = "{1, 0, 0, 1, 22, 0}";
}
);
layerId = "E8249F20-C38C-4E4D-AEFC-7B7CB3CA80AE";
name = "Oct 11 19, 14:37";
width = 727;
},
{
associatedMasterId = "78BDDC20-0CA0-41A5-B428-980291F99C29";
components = (
{
name = upper_serif.cap;
transform = "{1, 0, 0, 1, 14, 26}";
},
{
name = upper_serif.cap;
transform = "{1, 0, 0, -1, 14, 699}";
},
{
name = upper_serif.cap;
transform = "{-1, 0, 0, 1, 376, 26}";
}
);
layerId = "73066962-9BB1-49EA-9BB6-241E74DDC735";
name = "Sep 15 20, 18:37";
paths = (
{
closed = 1;
nodes = (
"145 725 LINE",
"245 725 LINE",
"245 47 LINE",
"272 47 LINE",
"419 47 LINE SMOOTH",
"519 47 OFFCURVE",
"560 102 OFFCURVE",
"573 236 CURVE",
"604 236 LINE",
"604 0 LINE",
"145 0 LINE"
);
}
);
width = 649;
},
{
associatedMasterId = "78BDDC20-0CA0-41A5-B428-980291F99C29";
components = (
{
name = upper_serif.cap;
transform = "{1, 0, 0, 1, 4, 26}";
},
{
name = upper_serif.cap;
transform = "{1, 0, 0, -1, 4, 699}";
},
{
name = upper_serif.cap;
transform = "{-1, 0, 0, 1, 374, 26}";
}
);
layerId = "76FA05CF-6AEA-4CDF-A7AE-E8BDB68F4991";
name = "Apr 13 21, 16:10";
paths = (
{
closed = 1;
nodes = (
"135 725 LINE",
"243 725 LINE",
"243 47 LINE",
"270 47 LINE",
"460 47 LINE",
"622 246 LINE",
"650 228 LINE",
"620 149 OFFCURVE",
"600 55 OFFCURVE",
"604 -18 CURVE",
"596 -25 LINE",
"515 0 LINE",
"135 0 LINE"
);
},
{
closed = 1;
nodes = (
"457 442 LINE SMOOTH",
"557 442 OFFCURVE",
"618 485 OFFCURVE",
"618 582 CURVE",
"656 582 LINE",
"656 396 LINE",
"548 399 LINE",
"259 399 LINE",
"259 442 LINE"
);
}
);
width = 692;
},
{
associatedMasterId = "78BDDC20-0CA0-41A5-B428-980291F99C29";
components = (
{
name = upper_serif.cap;
transform = "{1, 0, 0, 1, 19, 26}";
},
{
name = upper_serif.cap;
transform = "{1, 0, 0, -1, 19, 699}";
},
{
name = upper_serif.cap;
transform = "{-1, 0, 0, 1, 381, 26}";
}
);
layerId = "DDF040BE-12B7-4CBA-84E6-06387BDCA24E";
name = "Sep 7 21, 13:51";
paths = (
{
closed = 1;
nodes = (
"150 725 LINE",
"250 725 LINE",
"250 0 LINE",
"150 0 LINE"
);
},
{
closed = 1;
nodes = (
"374 49 LINE SMOOTH",
"506 49 OFFCURVE",
"546 176 OFFCURVE",
"561 214 CURVE",
"603 214 LINE",
"586 0 LINE",
"217 0 LINE",
"217 49 LINE"
);
}
);
width = 658;
},
{
associatedMasterId = "78BDDC20-0CA0-41A5-B428-980291F99C29";
components = (
{
name = upper_serif.cap;
transform = "{1, 0, 0, 1, -19, 26}";
},
{
name = upper_serif.cap;
transform = "{1, 0, 0, -1, -19, 699}";
},
{
name = upper_serif.cap;
transform = "{-1, 0, 0, 1, 341, 26}";
}
);
layerId = "2863B572-5091-470F-9FAD-C79DB93DB104";
name = "Nov 1 21, 15:01";
paths = (
{
closed = 1;
nodes = (
"112 725 LINE",
"210 725 LINE",
"210 0 LINE",
"112 0 LINE"
);
},
{
closed = 1;
nodes = (
"321 41 LINE SMOOTH",
"445 41 OFFCURVE",
"472 72 OFFCURVE",
"472 200 CURVE",
"513 200 LINE",
"513 0 LINE",
"183 0 LINE",
"183 41 LINE"
);
}
);
width = 563;
}
);
leftMetricsKey = "=80";
rightMetricsKey = "=80";
unicode = 004C;
},
{
glyphname = M;
lastChange = "2022-01-30 20:32:14 +0000";
layers = (
{
associatedMasterId = "78BDDC20-0CA0-41A5-B428-980291F99C29";
components = (
{
name = upper_serif.cap;
transform = "{1, 0, 0, 1, 14, 41}";
},
{
name = upper_serif.cap;
transform = "{1, 0, 0, -1, 14, 699}";
},
{
name = upper_serif.cap;
transform = "{-1, 0, 0, -1, 332, 699}";
},
{
name = upper_serif.cap;
transform = "{1, 0, 0, -1, 566, 699}";
},
{
name = upper_serif.cap;
transform = "{-1, 0, 0, -1, 926, 699}";
},
{
name = upper_serif.cap;
transform = "{-1, 0, 0, 1, 926, 41}";
}
);
guideLines = (
{
position = "{566, 640}";
}
);
layerId = "CD25F070-A856-49AE-BB73-9CA8BCC79688";
name = "May 4 19, 11:23";
paths = (
{
closed = 1;
nodes = (
"145 740 LINE",
"273 740 LINE",
"502 267 LINE",
"447 229 LINE",
"686 740 LINE",
"795 740 LINE",
"795 0 LINE",
"697 0 LINE",
"697 737 LINE",
"739 733 LINE",
"463 141 LINE",
"443 141 LINE",
"160 730 LINE",
"201 733 LINE",
"201 0 LINE",
"145 0 LINE"
);
}
);
width = 947;
},
{
associatedMasterId = "78BDDC20-0CA0-41A5-B428-980291F99C29";
components = (
{
name = upper_serif.cap;
transform = "{1, 0, 0, 1, 10, 41}";
},
{
name = upper_serif.cap;
transform = "{1, 0, 0, -1, 10, 699}";
},
{
name = upper_serif.cap;
transform = "{-1, 0, 0, -1, 328, 699}";
},
{
name = upper_serif.cap;
transform = "{1, 0, 0, -1, 570, 699}";
},
{
name = upper_serif.cap;
transform = "{-1, 0, 0, -1, 930, 699}";
},
{
name = upper_serif.cap;
transform = "{-1, 0, 0, 1, 930, 41}";
}
);
guideLines = (
{
position = "{566, 640}";
}
);
layerId = "E4E76682-6F05-4F28-8AF2-06430F2C0A35";
name = "Sep 15 19, 12:39";
paths = (
{
closed = 1;
nodes = (
"141 740 LINE",
"269 740 LINE",
"498 267 LINE",
"451 229 LINE",
"690 740 LINE",
"799 740 LINE",
"799 0 LINE",
"701 0 LINE",
"701 737 LINE",
"743 733 LINE",
"467 141 LINE",
"439 141 LINE",
"156 730 LINE",
"197 733 LINE",
"197 0 LINE",
"141 0 LINE"
);
}
);
width = 947;
},
{
associatedMasterId = "78BDDC20-0CA0-41A5-B428-980291F99C29";
components = (
{
name = upper_serif.cap;
transform = "{1, 0, 0, 1, -10, 41}";
},
{
name = upper_serif.cap;
transform = "{1, 0, 0, -1, -10, 699}";
},
{
name = upper_serif.cap;
transform = "{-1, 0, 0, -1, 308, 699}";
},
{
name = upper_serif.cap;
transform = "{1, 0, 0, -1, 590, 699}";
},
{
name = upper_serif.cap;
transform = "{-1, 0, 0, -1, 950, 699}";
},
{
name = upper_serif.cap;
transform = "{-1, 0, 0, 1, 950, 41}";
}
);
guideLines = (
{
position = "{566, 640}";
}
);
layerId = "33361670-0F08-43F2-BA39-C4C8A1794350";
name = "Sep 15 19, 12:50";
paths = (
{
closed = 1;
nodes = (
"121 740 LINE",
"249 740 LINE",
"498 176 LINE",
"451 138 LINE",
"710 740 LINE",
"819 740 LINE",
"819 0 LINE",
"721 0 LINE",
"721 737 LINE",
"763 733 LINE",
"467 50 LINE",
"439 50 LINE",
"136 730 LINE",
"177 733 LINE",
"177 0 LINE",
"121 0 LINE"
);
}
);
width = 947;
},
{
associatedMasterId = "78BDDC20-0CA0-41A5-B428-980291F99C29";
components = (
{
name = upper_serif.cap;
transform = "{1, 0, 0, 1, 18, 41}";
},
{
name = upper_serif.cap;
transform = "{1, 0, 0, -1, 18, 699}";
},
{
name = upper_serif.cap;
transform = "{-1, 0, 0, -1, 345, 699}";
},
{
name = upper_serif.cap;
transform = "{1, 0, 0, -1, 629, 699}";
},
{
name = upper_serif.cap;
transform = "{-1, 0, 0, -1, 1001, 699}";
},
{
name = upper_serif.cap;
transform = "{-1, 0, 0, 1, 1003, 41}";
}
);
guideLines = (
{
position = "{606, 620}";
},
{
angle = 246.5689;
position = "{663, 392}";
}
);
layerId = "9E835267-5162-4C96-86B5-5578178A0192";
name = "Sep 23 19, 14:33";
paths = (
{
closed = 1;
nodes = (
"149 740 LINE",
"291 740 LINE",
"540 176 LINE",
"486 138 LINE",
"743 740 LINE",
"872 740 LINE",
"870 0 LINE",
"760 0 LINE",
"762 737 LINE",
"811 733 LINE",
"515 50 LINE",
"471 50 LINE",
"168 730 LINE",
"214 733 LINE",
"214 0 LINE",
"149 0 LINE"
);
}
);
width = 1017;
},
{
associatedMasterId = "78BDDC20-0CA0-41A5-B428-980291F99C29";
components = (
{
name = upper_serif.cap;
transform = "{1, 0, 0, 1, 18, 41}";
},
{
name = upper_serif.cap;
transform = "{1, 0, 0, -1, 18, 699}";
},
{
name = upper_serif.cap;
transform = "{-1, 0, 0, -1, 340, 699}";
},
{
name = upper_serif.cap;
transform = "{1, 0, 0, -1, 660, 699}";
},
{
name = upper_serif.cap;
transform = "{-1, 0, 0, -1, 1024, 699}";
},
{
name = upper_serif.cap;
transform = "{-1, 0, 0, 1, 1025, 41}";
}
);
guideLines = (
{
position = "{621, 620}";
},
{
angle = 246.5689;
position = "{678, 392}";
},
{
angle = 114.0172;
position = "{335, 390}";
},
{
angle = -66.1821;
position = "{406, 446}";
},
{
angle = 246.8735;
position = "{665, 452}";
}
);
layerId = "D41F7DA9-1E7B-44C3-9302-CF6AD596CEF7";
name = "Oct 11 19, 14:34";
paths = (
{
closed = 1;
nodes = (
"149 740 LINE",
"293 740 LINE",
"538 145 LINE",
"526 131 LINE",
"774 740 LINE",
"895 740 LINE",
"893 0 LINE",
"790 0 LINE",
"792 737 LINE",
"833 733 LINE",
"527 0 LINE",
"475 0 LINE",
"168 730 LINE",
"209 733 LINE",
"209 0 LINE",
"149 0 LINE"
);
}
);
width = 1043;
},
{
associatedMasterId = "78BDDC20-0CA0-41A5-B428-980291F99C29";
components = (
{
name = upper_serif.cap;
transform = "{1, 0, 0, -1, 4, 699}";
},
{
name = upper_serif.cap;
transform = "{1, 0, 0, 1, 44, 26}";
},
{
name = upper_serif.cap;
transform = "{-1, 0, 0, -1, 319, 699}";
},
{
name = upper_serif.cap;
transform = "{1, 0, 0, -1, 652, 699}";
},
{
name = upper_serif.cap;
transform = "{-1, 0, 0, -1, 1019, 699}";
},
{
name = upper_serif.cap;
transform = "{-1, 0, 0, 1, 979, 26}";
}
);
guideLines = (
{
position = "{608, 620}";
},
{
angle = 246.5689;
position = "{665, 392}";
},
{
angle = 114.0172;
position = "{322, 390}";
},
{
angle = -66.1821;
position = "{393, 446}";
},
{
angle = 246.8735;
position = "{652, 452}";
}
);
layerId = "C284F676-D34A-4478-88EA-CF3F9767783E";
name = "Regular Oct 24 20, 23:29";
paths = (
{
closed = 1;
nodes = (
"175 725 LINE",
"316 725 LINE",
"526 145 LINE",
"506 131 LINE",
"719 725 LINE",
"848 725 LINE",
"888 0 LINE",
"783 0 LINE",
"743 722 LINE",
"772 718 LINE",
"505 -8 LINE",
"477 -8 LINE",
"201 715 LINE",
"228 718 LINE",
"188 0 LINE",
"135 0 LINE"
);
}
);
width = 1023;
},
{
components = (
{
name = upper_serif.cap;
transform = "{1, 0, 0, 1, -37, 0}";
},
{
name = upper_serif.cap;
transform = "{-1, 0, 0, 1, 372, 0}";
},
{
name = upper_serif.cap;
transform = "{1, 0, 0, 1, 725, 0}";
},
{
name = upper_serif.cap;
transform = "{-1, 0, 0, 1, 1071, 0}";
},
{
name = upper_serif.cap;
transform = "{-1, 0, 0, -1, 372, 764}";
},
{
name = upper_serif.cap;
transform = "{1, 0, 0, -1, 725, 764}";
}
);
layerId = "78BDDC20-0CA0-41A5-B428-980291F99C29";
paths = (
{
closed = 1;
nodes = (
"191 764 LINE",
"191 0 LINE",
"144 0 LINE",
"144 764 LINE"
);
},
{
closed = 1;
nodes = (
"953 764 LINE",
"953 0 LINE",
"843 0 LINE",
"843 764 LINE"
);
},
{
closed = 1;
nodes = (
"160 764 LINE",
"279 764 LINE",
"570 147 LINE",
"519 94 LINE",
"835 764 LINE",
"883 764 LINE",
"521 -10 LINE"
);
}
);
width = 1097;
},
{
associatedMasterId = "78BDDC20-0CA0-41A5-B428-980291F99C29";
components = (
{
name = upper_serif.cap;
transform = "{1, 0, 0, -1, 4, 699}";
},
{
name = upper_serif.cap;
transform = "{1, 0, 0, 1, 4, 26}";
},
{
name = upper_serif.cap;
transform = "{-1, 0, 0, -1, 319, 699}";
},
{
name = upper_serif.cap;
transform = "{1, 0, 0, -1, 612, 699}";
},
{
name = upper_serif.cap;
transform = "{-1, 0, 0, -1, 979, 699}";
},
{
name = upper_serif.cap;
transform = "{-1, 0, 0, 1, 979, 26}";
}
);
guideLines = (
{
position = "{588, 620}";
},
{
angle = 246.5689;
position = "{645, 392}";
},
{
angle = 114.0172;
position = "{302, 390}";
},
{
angle = -66.1821;
position = "{373, 446}";
},
{
angle = 246.8735;
position = "{632, 452}";
}
);
layerId = "BF1099D9-A1BD-4E9F-8DC2-09259C599571";
name = "Nov 13 20, 17:16";
paths = (
{
closed = 1;
nodes = (
"135 725 LINE",
"276 725 LINE",
"506 145 LINE",
"486 131 LINE",
"719 725 LINE",
"848 725 LINE",
"848 0 LINE",
"743 0 LINE",
"743 722 LINE",
"772 718 LINE",
"485 -8 LINE",
"457 -8 LINE",
"161 715 LINE",
"188 718 LINE",
"188 0 LINE",
"135 0 LINE"
);
}
);
width = 983;
},
{
associatedMasterId = "78BDDC20-0CA0-41A5-B428-980291F99C29";
components = (
{
name = upper_serif.cap;
transform = "{1, 0, 0, -1, 4, 699}";
},
{
name = upper_serif.cap;
transform = "{1, 0, 0, 1, 4, 26}";
},
{
name = upper_serif.cap;
transform = "{-1, 0, 0, -1, 319, 699}";
},
{
name = upper_serif.cap;
transform = "{1, 0, 0, -1, 612, 699}";
},
{
name = upper_serif.cap;
transform = "{-1, 0, 0, -1, 979, 699}";
},
{
name = upper_serif.cap;
transform = "{-1, 0, 0, 1, 979, 26}";
}
);
guideLines = (
{
position = "{588, 620}";
},
{
angle = 246.5689;
position = "{645, 392}";
},
{
angle = 114.0172;
position = "{302, 390}";
},
{
angle = -66.1821;
position = "{373, 446}";
},
{
angle = 246.8735;
position = "{632, 452}";
}
);
layerId = "AB90C9A2-5124-41A8-A983-6561D70ADA6F";
name = "Nov 13 20, 17:21";
paths = (
{
closed = 1;
nodes = (
"135 725 LINE",
"276 725 LINE",
"506 145 LINE",
"486 131 LINE",
"719 725 LINE",
"848 725 LINE",
"848 0 LINE",
"743 0 LINE",
"743 722 LINE",
"772 718 LINE",
"485 -8 LINE",
"457 -8 LINE",
"161 715 LINE",
"188 718 LINE",
"188 0 LINE",
"135 0 LINE"
);
}
);
width = 983;
},
{
associatedMasterId = "78BDDC20-0CA0-41A5-B428-980291F99C29";
components = (
{
name = upper_serif.cap;
transform = "{1, 0, 0, -1, 4, 699}";
},
{
name = upper_serif.cap;
transform = "{1, 0, 0, 1, 59, 26}";
},
{
name = upper_serif.cap;
transform = "{-1, 0, 0, -1, 319, 699}";
},
{
name = upper_serif.cap;
transform = "{1, 0, 0, -1, 675, 699}";
},
{
name = upper_serif.cap;
transform = "{-1, 0, 0, -1, 1042, 699}";
},
{
name = upper_serif.cap;
transform = "{-1, 0, 0, 1, 974, 26}";
}
);
guideLines = (
{
position = "{618, 620}";
},
{
angle = 246.5689;
position = "{675, 392}";
},
{
angle = 114.0172;
position = "{332, 390}";
},
{
angle = -66.1821;
position = "{403, 446}";
},
{
angle = 246.8735;
position = "{662, 452}";
}
);
layerId = "A98FD703-67F0-45A8-A778-C2ECE024BA96";
name = "Apr 12 21, 16:20";
paths = (
{
closed = 1;
nodes = (
"190 725 LINE",
"331 725 LINE",
"536 145 LINE",
"516 131 LINE",
"714 725 LINE",
"843 725 LINE",
"911 0 LINE",
"806 0 LINE",
"738 722 LINE",
"767 718 LINE",
"515 -8 LINE",
"487 -8 LINE",
"216 715 LINE",
"243 718 LINE",
"188 0 LINE",
"135 0 LINE"
);
}
);
width = 1046;
},
{
associatedMasterId = "78BDDC20-0CA0-41A5-B428-980291F99C29";
components = (
{
name = upper_serif.cap;
transform = "{1, 0, 0, -1, 24, 699}";
},
{
name = upper_serif.cap;
transform = "{1, 0, 0, 1, 44, 26}";
},
{
name = upper_serif.cap;
transform = "{-1, 0, 0, -1, 327, 699}";
},
{
name = upper_serif.cap;
transform = "{1, 0, 0, -1, 722, 699}";
},
{
name = upper_serif.cap;
transform = "{-1, 0, 0, -1, 1081, 699}";
},
{
name = upper_serif.cap;
transform = "{-1, 0, 0, 1, 1059, 26}";
}
);
layerId = "C73B3DA1-A5C5-4A93-9292-E21DD00FEE82";
name = "Aug 31 21, 15:47";
paths = (
{
closed = 1;
nodes = (
"175 725 LINE",
"316 725 LINE",
"571 165 LINE",
"551 151 LINE",
"799 725 LINE",
"928 725 LINE",
"953 0 LINE",
"848 0 LINE",
"823 722 LINE",
"852 718 LINE",
"550 12 LINE",
"522 12 LINE",
"201 715 LINE",
"228 718 LINE",
"203 0 LINE",
"150 0 LINE"
);
}
);
width = 1105;
},
{
associatedMasterId = "78BDDC20-0CA0-41A5-B428-980291F99C29";
components = (
{
name = upper_serif.cap;
transform = "{1, 0, 0, -1, 19, 699}";
},
{
name = upper_serif.cap;
transform = "{1, 0, 0, 1, 18, 26}";
},
{
name = upper_serif.cap;
transform = "{-1, 0, 0, -1, 327, 699}";
},
{
name = upper_serif.cap;
transform = "{1, 0, 0, -1, 715, 699}";
},
{
name = upper_serif.cap;
transform = "{-1, 0, 0, -1, 1070, 699}";
},
{
name = upper_serif.cap;
transform = "{-1, 0, 0, 1, 1068, 26}";
}
);
layerId = "CF81E34C-2F03-4AB8-9427-B3CC1640B543";
name = "Sep 30 21, 11:10";
paths = (
{
closed = 1;
nodes = (
"147 725 LINE",
"286 725 LINE",
"554 153 LINE",
"543 139 LINE",
"819 725 LINE",
"937 725 LINE",
"941 0 LINE",
"846 0 LINE",
"842 722 LINE",
"864 718 LINE",
"537 0 LINE",
"509 0 LINE",
"185 715 LINE",
"200 718 LINE",
"200 0 LINE",
"147 0 LINE"
);
}
);
width = 1089;
},
{
associatedMasterId = "78BDDC20-0CA0-41A5-B428-980291F99C29";
layerId = "619F8E21-7BD3-4114-849E-43191B14F7F4";
name = "Oct 7 21, 14:38";
paths = (
{
closed = 1;
nodes = (
"124 719 LINE",
"124 725 LINE",
"230 725 LINE",
"527 137 LINE",
"500 121 LINE",
"810 725 LINE",
"861 725 LINE",
"861 721 LINE",
"498 26 LINE",
"483 26 LINE"
);
},
{
closed = 1;
nodes = (
"233 672 LINE",
"149 0 LINE",
"102 0 LINE",
"186 672 LINE"
);
},
{
closed = 1;
nodes = (
"817 663 LINE",
"912 0 LINE",
"821 0 LINE",
"740 550 LINE"
);
},
{
closed = 1;
nodes = (
"159 80 LINE",
"155 50 OFFCURVE",
"164 39 OFFCURVE",
"190 39 CURVE SMOOTH",
"241 39 LINE",
"241 0 LINE",
"149 0 LINE"
);
},
{
closed = 1;
nodes = (
"15 0 LINE",
"15 39 LINE",
"71 39 LINE SMOOTH",
"97 39 OFFCURVE",
"108 47 OFFCURVE",
"112 79 CURVE",
"102 0 LINE"
);
},
{
closed = 1;
nodes = (
"725 0 LINE",
"725 39 LINE",
"774 39 LINE SMOOTH",
"802 39 OFFCURVE",
"814 52 OFFCURVE",
"808 89 CURVE",
"821 0 LINE"
);
},
{
closed = 1;
nodes = (
"900 84 LINE",
"905 50 OFFCURVE",
"919 39 OFFCURVE",
"949 39 CURVE SMOOTH",
"1001 39 LINE",
"1001 0 LINE",
"912 0 LINE"
);
}
);
width = 1016;
},
{
associatedMasterId = "78BDDC20-0CA0-41A5-B428-980291F99C29";
layerId = "90D52265-36F4-4D9C-B184-1074A881043A";
name = "Oct 7 21, 17:34";
paths = (
{
closed = 1;
nodes = (
"196 554 LINE",
"190 719 LINE",
"190 725 LINE",
"216 725 LINE",
"530 134 LINE",
"503 118 LINE",
"776 725 LINE",
"798 725 LINE",
"798 721 LINE",
"776 623 LINE",
"501 23 LINE",
"486 23 LINE"
);
},
{
closed = 1;
nodes = (
"229 588 LINE",
"139 0 LINE",
"92 0 LINE",
"192 702 LINE"
);
},
{
closed = 1;
nodes = (
"797 723 LINE",
"902 0 LINE",
"811 0 LINE",
"722 604 LINE"
);
},
{
closed = 1;
nodes = (
"141 80 LINE",
"137 50 OFFCURVE",
"154 39 OFFCURVE",
"180 39 CURVE SMOOTH",
"231 39 LINE",
"231 0 LINE",
"139 0 LINE"
);
},
{
closed = 1;
nodes = (
"5 0 LINE",
"5 39 LINE",
"61 39 LINE SMOOTH",
"87 39 OFFCURVE",
"98 47 OFFCURVE",
"102 79 CURVE",
"92 0 LINE"
);
},
{
closed = 1;
nodes = (
"720 0 LINE",
"720 39 LINE",
"769 39 LINE SMOOTH",
"797 39 OFFCURVE",
"809 52 OFFCURVE",
"803 89 CURVE",
"816 0 LINE"
);
},
{
closed = 1;
nodes = (
"890 84 LINE",
"895 50 OFFCURVE",
"909 39 OFFCURVE",
"939 39 CURVE SMOOTH",
"991 39 LINE",
"991 0 LINE",
"902 0 LINE"
);
}
);
width = 996;
},
{
associatedMasterId = "78BDDC20-0CA0-41A5-B428-980291F99C29";
layerId = "EAEDECF8-E8A1-4693-87AA-C284CAAA95C3";
name = "Oct 7 21, 18:02";
paths = (
{
closed = 1;
nodes = (
"238 576 LINE",
"149 0 LINE",
"102 0 LINE",
"201 690 LINE"
);
},
{
closed = 1;
nodes = (
"811 673 LINE",
"916 0 LINE",
"823 0 LINE",
"734 548 LINE"
);
},
{
closed = 1;
nodes = (
"151 80 LINE",
"147 50 OFFCURVE",
"164 39 OFFCURVE",
"190 39 CURVE SMOOTH",
"241 39 LINE",
"241 0 LINE",
"149 0 LINE"
);
},
{
closed = 1;
nodes = (
"15 0 LINE",
"15 39 LINE",
"71 39 LINE SMOOTH",
"97 39 OFFCURVE",
"108 47 OFFCURVE",
"112 79 CURVE",
"102 0 LINE"
);
},
{
closed = 1;
nodes = (
"732 0 LINE",
"732 39 LINE",
"781 39 LINE SMOOTH",
"809 39 OFFCURVE",
"821 52 OFFCURVE",
"815 89 CURVE",
"828 0 LINE"
);
},
{
closed = 1;
nodes = (
"904 84 LINE",
"909 50 OFFCURVE",
"923 39 OFFCURVE",
"953 39 CURVE SMOOTH",
"1005 39 LINE",
"1005 0 LINE",
"916 0 LINE"
);
},
{
closed = 1;
nodes = (
"108 725 LINE",
"245 725 LINE",
"548 104 LINE",
"509 77 LINE",
"790 725 LINE",
"895 725 LINE",
"895 686 LINE",
"821 686 OFFCURVE",
"804 656 OFFCURVE",
"775 590 CURVE SMOOTH",
"510 -17 LINE",
"495 -17 LINE",
"204 605 LINE SMOOTH",
"180 657 OFFCURVE",
"150 686 OFFCURVE",
"108 686 CURVE"
);
}
);
width = 1020;
},
{
associatedMasterId = "78BDDC20-0CA0-41A5-B428-980291F99C29";
layerId = "1FDAB003-7D82-4B26-B866-AB9757BD4E96";
name = "Oct 8 21, 10:17";
paths = (
{
closed = 1;
nodes = (
"228 576 LINE",
"139 0 LINE",
"92 0 LINE",
"191 690 LINE"
);
},
{
closed = 1;
nodes = (
"781 673 LINE",
"886 0 LINE",
"793 0 LINE",
"704 548 LINE"
);
},
{
closed = 1;
nodes = (
"141 80 LINE",
"137 50 OFFCURVE",
"154 39 OFFCURVE",
"180 39 CURVE SMOOTH",
"231 39 LINE",
"231 0 LINE",
"139 0 LINE"
);
},
{
closed = 1;
nodes = (
"15 0 LINE",
"15 39 LINE",
"61 39 LINE SMOOTH",
"87 39 OFFCURVE",
"98 47 OFFCURVE",
"102 79 CURVE",
"92 0 LINE"
);
},
{
closed = 1;
nodes = (
"702 0 LINE",
"702 39 LINE",
"751 39 LINE SMOOTH",
"779 39 OFFCURVE",
"791 52 OFFCURVE",
"785 89 CURVE",
"798 0 LINE"
);
},
{
closed = 1;
nodes = (
"874 84 LINE",
"879 50 OFFCURVE",
"893 39 OFFCURVE",
"923 39 CURVE SMOOTH",
"965 39 LINE",
"965 0 LINE",
"886 0 LINE"
);
},
{
closed = 1;
nodes = (
"98 725 LINE",
"235 725 LINE",
"524 104 LINE",
"478 77 LINE",
"753 725 LINE",
"885 725 LINE",
"885 696 LINE",
"776 650 LINE",
"761 633 LINE",
"486 -17 LINE",
"471 -17 LINE",
"195 602 LINE",
"192 632 LINE",
"98 696 LINE"
);
}
);
width = 980;
},
{
associatedMasterId = "78BDDC20-0CA0-41A5-B428-980291F99C29";
layerId = "3813BD64-E02C-442A-984A-A9B4B19AF7A7";
name = "Oct 8 21, 10:20";
paths = (
{
closed = 1;
nodes = (
"228 576 LINE",
"139 0 LINE",
"92 0 LINE",
"191 690 LINE"
);
},
{
closed = 1;
nodes = (
"781 673 LINE",
"886 0 LINE",
"793 0 LINE",
"704 548 LINE"
);
},
{
closed = 1;
nodes = (
"141 80 LINE",
"137 50 OFFCURVE",
"154 39 OFFCURVE",
"180 39 CURVE SMOOTH",
"231 39 LINE",
"231 0 LINE",
"139 0 LINE"
);
},
{
closed = 1;
nodes = (
"15 0 LINE",
"15 39 LINE",
"61 39 LINE SMOOTH",
"87 39 OFFCURVE",
"98 47 OFFCURVE",
"102 79 CURVE",
"92 0 LINE"
);
},
{
closed = 1;
nodes = (
"702 0 LINE",
"702 39 LINE",
"751 39 LINE SMOOTH",
"779 39 OFFCURVE",
"791 52 OFFCURVE",
"785 89 CURVE",
"798 0 LINE"
);
},
{
closed = 1;
nodes = (
"874 84 LINE",
"879 50 OFFCURVE",
"893 39 OFFCURVE",
"923 39 CURVE SMOOTH",
"965 39 LINE",
"965 0 LINE",
"886 0 LINE"
);
},
{
closed = 1;
nodes = (
"98 725 LINE",
"235 725 LINE",
"524 104 LINE",
"478 77 LINE",
"753 725 LINE",
"885 725 LINE",
"885 696 LINE",
"776 650 LINE",
"761 633 LINE",
"486 -17 LINE",
"471 -17 LINE",
"195 602 LINE",
"192 632 LINE",
"98 696 LINE"
);
}
);
width = 980;
},
{
associatedMasterId = "78BDDC20-0CA0-41A5-B428-980291F99C29";
layerId = "0F221DD0-410E-439D-8DB5-EAB415B11F20";
name = "Nov 20 21, 16:13";
paths = (
{
closed = 1;
nodes = (
"207 606 LINE",
"159 0 LINE",
"112 0 LINE",
"170 720 LINE"
);
},
{
closed = 1;
nodes = (
"828 723 LINE",
"884 0 LINE",
"786 0 LINE",
"742 618 LINE"
);
},
{
closed = 1;
nodes = (
"161 80 LINE",
"157 50 OFFCURVE",
"174 39 OFFCURVE",
"200 39 CURVE SMOOTH",
"251 39 LINE",
"251 0 LINE",
"159 0 LINE"
);
},
{
closed = 1;
nodes = (
"35 0 LINE",
"35 39 LINE",
"81 39 LINE SMOOTH",
"107 39 OFFCURVE",
"118 47 OFFCURVE",
"122 79 CURVE",
"112 0 LINE"
);
},
{
closed = 1;
nodes = (
"695 0 LINE",
"695 39 LINE",
"744 39 LINE SMOOTH",
"772 39 OFFCURVE",
"787 52 OFFCURVE",
"781 89 CURVE",
"791 0 LINE"
);
},
{
closed = 1;
nodes = (
"875 84 LINE",
"880 50 OFFCURVE",
"891 39 OFFCURVE",
"921 39 CURVE SMOOTH",
"953 39 LINE",
"953 0 LINE",
"884 0 LINE"
);
},
{
closed = 1;
nodes = (
"97 725 LINE",
"232 725 LINE",
"520 121 LINE",
"485 94 LINE",
"755 725 LINE",
"892 725 LINE",
"892 686 LINE",
"857 686 OFFCURVE",
"831 670 OFFCURVE",
"835 615 CURVE",
"763 633 LINE",
"493 0 LINE",
"469 0 LINE",
"194 602 LINE",
"164 616 LINE",
"167 663 OFFCURVE",
"155 686 OFFCURVE",
"97 686 CURVE"
);
}
);
width = 988;
},
{
associatedMasterId = "78BDDC20-0CA0-41A5-B428-980291F99C29";
layerId = "C677596B-1E00-41AB-8C81-289F57F0021F";
name = "Dec 27 21, 18:22";
paths = (
{
closed = 1;
nodes = (
"207 606 LINE",
"159 0 LINE",
"112 0 LINE",
"170 720 LINE"
);
},
{
closed = 1;
nodes = (
"828 725 LINE",
"884 0 LINE",
"786 0 LINE",
"742 618 LINE"
);
},
{
closed = 1;
nodes = (
"161 39 LINE",
"251 39 LINE",
"251 0 LINE",
"159 0 LINE"
);
},
{
closed = 1;
nodes = (
"35 0 LINE",
"35 39 LINE",
"122 39 LINE",
"112 0 LINE"
);
},
{
closed = 1;
nodes = (
"695 0 LINE",
"695 39 LINE",
"828 39 LINE",
"791 0 LINE"
);
},
{
closed = 1;
nodes = (
"869 39 LINE",
"953 39 LINE",
"953 0 LINE",
"884 0 LINE"
);
},
{
closed = 1;
nodes = (
"97 725 LINE",
"232 725 LINE",
"520 121 LINE",
"485 94 LINE",
"755 725 LINE",
"828 725 LINE",
"763 633 LINE",
"493 0 LINE",
"469 0 LINE",
"194 602 LINE",
"164 616 LINE",
"167 663 OFFCURVE",
"155 686 OFFCURVE",
"97 686 CURVE"
);
},
{
closed = 1;
nodes = (
"525 686 LINE",
"525 725 LINE",
"678 725 LINE",
"678 686 LINE"
);
}
);
width = 988;
}
);
leftMetricsKey = "=55";
rightMetricsKey = "=55";
unicode = 004D;
},
{
glyphname = N;
lastChange = "2022-01-30 20:32:28 +0000";
layers = (
{
components = (
{
name = upper_serif.cap;
transform = "{-1, 0, 0, -1, 955, 764}";
},
{
name = upper_serif.cap;
transform = "{1, 0, 0, -1, 549, 764}";
},
{
name = upper_serif.cap;
transform = "{1, 0, 0, 1, -37, 0}";
},
{
name = upper_serif.cap;
transform = "{-1, 0, 0, 1, 372, 0}";
},
{
name = upper_serif.cap;
transform = "{-1, 0, 0, -1, 372, 764}";
}
);
layerId = "78BDDC20-0CA0-41A5-B428-980291F99C29";
paths = (
{
closed = 1;
nodes = (
"117 764 LINE",
"262 764 LINE",
"773 165 LINE",
"731 96 LINE",
"727 763 LINE",
"777 763 LINE",
"777 -10 LINE"
);
},
{
closed = 1;
nodes = (
"191 764 LINE",
"191 0 LINE",
"144 0 LINE",
"144 764 LINE"
);
}
);
width = 921;
},
{
associatedMasterId = "78BDDC20-0CA0-41A5-B428-980291F99C29";
components = (
{
name = upper_serif.cap;
transform = "{1, 0, 0, 1, 25, 26}";
},
{
name = upper_serif.cap;
transform = "{1, 0, 0, -1, 25, 699}";
},
{
name = upper_serif.cap;
transform = "{-1, 0, 0, 1, 881, 26}";
},
{
name = upper_serif.cap;
transform = "{1, 0, 0, 1, 564, 26}";
},
{
name = upper_serif.cap;
transform = "{-1, 0, 0, -1, 342, 699}";
}
);
layerId = "41229776-E1B2-4036-9DF9-5F27CD9A6CE7";
name = "Sep 7 21, 11:38";
paths = (
{
closed = 1;
nodes = (
"156 725 LINE",
"250 725 LINE",
"719 159 LINE",
"695 126 LINE",
"695 725 LINE",
"750 725 LINE",
"750 -10 LINE",
"707 -10 LINE",
"139 704 LINE",
"211 697 LINE",
"211 0 LINE",
"148 0 LINE"
);
}
);
width = 885;
},
{
associatedMasterId = "78BDDC20-0CA0-41A5-B428-980291F99C29";
components = (
{
name = upper_serif.cap;
transform = "{1, 0, 0, 1, 19, 26}";
},
{
name = upper_serif.cap;
transform = "{1, 0, 0, -1, 19, 699}";
},
{
name = upper_serif.cap;
transform = "{-1, 0, 0, 1, 843, 26}";
},
{
name = upper_serif.cap;
transform = "{1, 0, 0, 1, 528, 26}";
},
{
name = upper_serif.cap;
transform = "{-1, 0, 0, -1, 334, 699}";
}
);
layerId = "B79E63C5-7438-4096-B682-18F2A5B7CE34";
name = "Sep 29 21, 11:23";
paths = (
{
closed = 1;
nodes = (
"150 725 LINE",
"234 725 LINE",
"693 159 LINE",
"659 126 LINE",
"659 725 LINE",
"712 725 LINE",
"712 -10 LINE",
"689 -10 LINE",
"131 704 LINE",
"203 697 LINE",
"203 0 LINE",
"150 0 LINE"
);
}
);
width = 842;
},
{
associatedMasterId = "78BDDC20-0CA0-41A5-B428-980291F99C29";
components = (
{
name = upper_serif.cap;
transform = "{1, 0, 0, 1, 19, 26}";
},
{
name = upper_serif.cap;
transform = "{1, 0, 0, -1, 19, 699}";
},
{
name = upper_serif.cap;
transform = "{-1, 0, 0, 1, 895, 26}";
},
{
name = upper_serif.cap;
transform = "{1, 0, 0, 1, 580, 26}";
},
{
name = upper_serif.cap;
transform = "{-1, 0, 0, -1, 334, 699}";
}
);
layerId = "10CB38E2-F15C-4E8E-A0B6-51969367142E";
name = "Sep 30 21, 12:53";
paths = (
{
closed = 1;
nodes = (
"150 632 LINE",
"150 673 LINE",
"150 725 LINE",
"234 725 LINE",
"711 201 LINE",
"711 725 LINE",
"764 725 LINE",
"764 -10 LINE",
"741 -10 LINE",
"203 612 LINE",
"203 0 LINE",
"150 0 LINE"
);
}
);
width = 894;
},
{
associatedMasterId = "78BDDC20-0CA0-41A5-B428-980291F99C29";
components = (
{
name = upper_serif.cap;
transform = "{1, 0, 0, -1, 9, 699}";
},
{
name = upper_serif.cap;
transform = "{-1, 0, 0, 1, 871, 26}";
},
{
name = upper_serif.cap;
transform = "{1, 0, 0, 1, 559, 26}";
},
{
name = upper_serif.cap;
transform = "{-1, 0, 0, -1, 320, 699}";
}
);
layerId = "50ABAACF-095B-430F-81B5-45873D8BC369";
name = "Oct 7 21, 14:53";
paths = (
{
closed = 1;
nodes = (
"60 716 LINE",
"60 725 LINE",
"189 725 LINE",
"716 141 LINE",
"694 96 LINE",
"690 725 LINE",
"740 725 LINE",
"740 -10 LINE",
"721 -10 LINE"
);
},
{
closed = 1;
nodes = (
"190 645 LINE",
"190 0 LINE",
"140 0 LINE",
"140 645 LINE"
);
}
);
width = 880;
},
{
associatedMasterId = "78BDDC20-0CA0-41A5-B428-980291F99C29";
components = (
{
name = upper_serif.cap;
transform = "{1, 0, 0, -1, -1, 699}";
},
{
name = upper_serif.cap;
transform = "{-1, 0, 0, 1, 873, 26}";
},
{
name = upper_serif.cap;
transform = "{1, 0, 0, 1, 562, 26}";
},
{
name = upper_serif.cap;
transform = "{-1, 0, 0, -1, 308, 699}";
}
);
layerId = "EF00E5E8-5FB7-4968-AD58-B882B515A72C";
name = "Oct 8 21, 10:31";
paths = (
{
closed = 1;
nodes = (
"121 695 LINE",
"130 725 LINE",
"227 725 LINE",
"726 141 LINE",
"696 96 LINE",
"692 725 LINE",
"742 725 LINE",
"742 -10 LINE",
"723 -10 LINE"
);
},
{
closed = 1;
nodes = (
"178 665 LINE",
"178 0 LINE",
"130 0 LINE",
"130 695 LINE"
);
},
{
closed = 1;
nodes = (
"130 654 LINE",
"35 688 LINE",
"35 725 LINE",
"130 725 LINE"
);
}
);
width = 882;
},
{
associatedMasterId = "78BDDC20-0CA0-41A5-B428-980291F99C29";
components = (
{
name = upper_serif.cap;
transform = "{1, 0, 0, -1, -1, 699}";
},
{
name = upper_serif.cap;
transform = "{-1, 0, 0, 1, 835, 26}";
},
{
name = upper_serif.cap;
transform = "{1, 0, 0, 1, 524, 26}";
},
{
name = upper_serif.cap;
transform = "{-1, 0, 0, -1, 308, 699}";
}
);
layerId = "4FC1193F-27CE-4D77-853C-47BB63F3015A";
name = "Oct 30 21, 14:53";
paths = (
{
closed = 1;
nodes = (
"121 695 LINE",
"130 725 LINE",
"227 725 LINE",
"688 141 LINE",
"658 96 LINE",
"654 725 LINE",
"704 725 LINE",
"704 -10 LINE",
"685 -10 LINE"
);
},
{
closed = 1;
nodes = (
"178 665 LINE",
"178 0 LINE",
"130 0 LINE",
"130 695 LINE"
);
},
{
closed = 1;
nodes = (
"130 596 LINE",
"130 667 OFFCURVE",
"73 688 OFFCURVE",
"35 688 CURVE",
"35 725 LINE",
"130 725 LINE"
);
}
);
width = 816;
}
);
leftMetricsKey = "=M";
rightMetricsKey = "=M";
unicode = 004E;
},
{
glyphname = O;
lastChange = "2022-01-30 22:01:54 +0000";
layers = (
{
layerId = "78BDDC20-0CA0-41A5-B428-980291F99C29";
paths = (
{
closed = 1;
nodes = (
"60 151 OFFCURVE",
"243 -10 OFFCURVE",
"461 -10 CURVE SMOOTH",
"679 -10 OFFCURVE",
"881 169 OFFCURVE",
"881 390 CURVE SMOOTH",
"881 616 OFFCURVE",
"698 774 OFFCURVE",
"480 774 CURVE SMOOTH",
"262 774 OFFCURVE",
"60 599 OFFCURVE",
"60 377 CURVE"
);
},
{
closed = 1;
nodes = (
"605 726 OFFCURVE",
"764 578 OFFCURVE",
"764 355 CURVE SMOOTH",
"764 150 OFFCURVE",
"635 39 OFFCURVE",
"484 39 CURVE SMOOTH",
"335 39 OFFCURVE",
"177 185 OFFCURVE",
"177 412 CURVE SMOOTH",
"177 613 OFFCURVE",
"305 726 OFFCURVE",
"456 726 CURVE SMOOTH"
);
}
);
width = 941;
},
{
associatedMasterId = "78BDDC20-0CA0-41A5-B428-980291F99C29";
layerId = "065BA914-D32B-408A-AE63-E36430E05D50";
name = "Apr 14 21, 15:46";
paths = (
{
closed = 1;
nodes = (
"577 0 OFFCURVE",
"749 139 OFFCURVE",
"749 370 CURVE SMOOTH",
"749 606 OFFCURVE",
"579 740 OFFCURVE",
"401 740 CURVE SMOOTH",
"225 740 OFFCURVE",
"50 606 OFFCURVE",
"50 370 CURVE SMOOTH",
"50 139 OFFCURVE",
"223 0 OFFCURVE",
"401 0 CURVE SMOOTH"
);
},
{
closed = 1;
nodes = (
"280 44 OFFCURVE",
"172 162 OFFCURVE",
"172 370 CURVE SMOOTH",
"172 579 OFFCURVE",
"280 696 OFFCURVE",
"401 696 CURVE SMOOTH",
"521 696 OFFCURVE",
"627 579 OFFCURVE",
"627 370 CURVE SMOOTH",
"627 162 OFFCURVE",
"521 44 OFFCURVE",
"401 44 CURVE SMOOTH"
);
}
);
width = 799;
},
{
associatedMasterId = "78BDDC20-0CA0-41A5-B428-980291F99C29";
layerId = "0DBF64EE-B06E-46A5-96CF-28CAAD6AA2F5";
name = "Sep 7 21, 12:07";
paths = (
{
closed = 1;
nodes = (
"577 0 OFFCURVE",
"749 139 OFFCURVE",
"749 370 CURVE SMOOTH",
"749 606 OFFCURVE",
"579 740 OFFCURVE",
"401 740 CURVE SMOOTH",
"225 740 OFFCURVE",
"50 606 OFFCURVE",
"50 370 CURVE SMOOTH",
"50 139 OFFCURVE",
"223 0 OFFCURVE",
"401 0 CURVE SMOOTH"
);
},
{
closed = 1;
nodes = (
"280 44 OFFCURVE",
"172 162 OFFCURVE",
"172 370 CURVE SMOOTH",
"172 579 OFFCURVE",
"280 696 OFFCURVE",
"401 696 CURVE SMOOTH",
"521 696 OFFCURVE",
"627 579 OFFCURVE",
"627 370 CURVE SMOOTH",
"627 162 OFFCURVE",
"521 44 OFFCURVE",
"401 44 CURVE SMOOTH"
);
}
);
width = 799;
}
);
leftMetricsKey = "=60";
rightMetricsKey = "=60";
unicode = 004F;
},
{
glyphname = P;
lastChange = "2022-01-31 13:06:54 +0000";
layers = (
{
components = (
{
name = upper_serif.cap;
transform = "{-1, 0, 0, -1, 347, 764}";
},
{
name = upper_serif.cap;
transform = "{-1, 0, 0, 1, 347, 0}";
},
{
name = _serif_cap_long;
transform = "{1, 0, 0, 1, 1, 0}";
}
);
layerId = "78BDDC20-0CA0-41A5-B428-980291F99C29";
paths = (
{
closed = 1;
nodes = (
"119 764 LINE",
"229 764 LINE",
"229 0 LINE",
"119 0 LINE"
);
},
{
closed = 1;
nodes = (
"229 344 LINE",
"229 377 LINE",
"279 377 LINE SMOOTH",
"364 377 OFFCURVE",
"462 420 OFFCURVE",
"462 545 CURVE SMOOTH",
"462 650 OFFCURVE",
"397 731 OFFCURVE",
"257 731 CURVE SMOOTH",
"229 731 LINE",
"229 764 LINE",
"298 764 LINE SMOOTH",
"438 764 OFFCURVE",
"577 729 OFFCURVE",
"577 580 CURVE SMOOTH",
"577 436 OFFCURVE",
"412 344 OFFCURVE",
"247 344 CURVE SMOOTH"
);
}
);
width = 597;
},
{
associatedMasterId = "78BDDC20-0CA0-41A5-B428-980291F99C29";
components = (
{
alignment = -1;
name = B;
transform = "{1, 0, 0, 1, 56, 0}";
}
);
layerId = "90F41FDB-C44E-450C-9952-E3B446F79AC8";
name = "Oct 22 19, 12:21";
width = 764;
},
{
associatedMasterId = "78BDDC20-0CA0-41A5-B428-980291F99C29";
components = (
{
name = upper_serif.cap;
transform = "{1, 0, 0, 1, -7, 41}";
},
{
name = upper_serif.cap;
transform = "{1, 0, 0, -1, -7, 699}";
}
);
layerId = "9E535FB7-B45D-480F-BC3D-9C2C9D7A4DBE";
name = "Oct 27 19, 12:56";
paths = (
{
closed = 1;
nodes = (
"124 740 LINE",
"234 740 LINE",
"234 0 LINE",
"124 0 LINE"
);
},
{
closed = 1;
nodes = (
"594 388 OFFCURVE",
"475 314 OFFCURVE",
"336 314 CURVE SMOOTH",
"182 314 LINE",
"182 320 LINE",
"181 320 LINE",
"181 361 LINE",
"299 361 LINE SMOOTH",
"457 361 OFFCURVE",
"484 457 OFFCURVE",
"484 534 CURVE SMOOTH",
"484 641 OFFCURVE",
"419 694 OFFCURVE",
"321 694 CURVE SMOOTH",
"220 694 LINE",
"220 740 LINE",
"335 740 LINE SMOOTH",
"469 740 OFFCURVE",
"594 680 OFFCURVE",
"594 537 CURVE SMOOTH"
);
},
{
closed = 1;
nodes = (
"234 107 LINE",
"234 54 OFFCURVE",
"276 45 OFFCURVE",
"338 40 CURVE",
"338 0 LINE",
"234 0 LINE",
"233 48 LINE",
"219 48 LINE",
"219 67 LINE"
);
}
);
width = 614;
},
{
associatedMasterId = "78BDDC20-0CA0-41A5-B428-980291F99C29";
components = (
{
name = upper_serif.cap;
transform = "{1, 0, 0, 1, -6, 26}";
},
{
name = upper_serif.cap;
transform = "{1, 0, 0, -1, -6, 699}";
}
);
layerId = "A9CF4D8D-24F7-4F51-AD6D-49BC5EC878F8";
name = "Sep 29 21, 18:26";
paths = (
{
closed = 1;
nodes = (
"125 725 LINE",
"235 725 LINE",
"235 0 LINE",
"125 0 LINE"
);
},
{
closed = 1;
nodes = (
"591 373 OFFCURVE",
"454 299 OFFCURVE",
"303 299 CURVE SMOOTH",
"183 299 LINE",
"183 305 LINE",
"182 305 LINE",
"182 346 LINE",
"274 346 LINE SMOOTH",
"444 346 OFFCURVE",
"479 439 OFFCURVE",
"479 519 CURVE SMOOTH",
"479 626 OFFCURVE",
"413 679 OFFCURVE",
"308 679 CURVE SMOOTH",
"221 679 LINE",
"221 725 LINE",
"329 725 LINE SMOOTH",
"466 725 OFFCURVE",
"591 669 OFFCURVE",
"591 522 CURVE SMOOTH"
);
},
{
closed = 1;
nodes = (
"235 107 LINE",
"235 54 OFFCURVE",
"277 45 OFFCURVE",
"339 40 CURVE",
"339 0 LINE",
"235 0 LINE",
"234 48 LINE",
"220 48 LINE",
"220 67 LINE"
);
}
);
width = 611;
}
);
leftMetricsKey = "=30";
rightMetricsKey = "=20";
unicode = 0050;
},
{
glyphname = Q;
lastChange = "2020-01-06 21:13:43 +0000";
layers = (
{
layerId = "78BDDC20-0CA0-41A5-B428-980291F99C29";
paths = (
{
closed = 1;
nodes = (
"37 418 OFFCURVE",
"150 510 OFFCURVE",
"275 510 CURVE SMOOTH",
"320 510 OFFCURVE",
"367.051 495.822 OFFCURVE",
"399 461.488 CURVE",
"399 650 LINE SMOOTH",
"399 692 OFFCURVE",
"383 706 OFFCURVE",
"356 708 CURVE SMOOTH",
"323 711 LINE",
"323 744 LINE",
"482 770 LINE",
"492 762 LINE",
"492 104 LINE SMOOTH",
"492 69 OFFCURVE",
"506 61 OFFCURVE",
"533 57 CURVE SMOOTH",
"568 52 LINE",
"568 19 LINE",
"408 -10 LINE",
"399 -4 LINE",
"399 98.996 LINE",
"377.661 41.51 OFFCURVE",
"317.072 -10 OFFCURVE",
"240 -10 CURVE SMOOTH",
"157 -10 OFFCURVE",
"37 53 OFFCURVE",
"37 241 CURVE SMOOTH"
);
},
{
closed = 1;
nodes = (
"134 139 OFFCURVE",
"192 70 OFFCURVE",
"279 70 CURVE SMOOTH",
"333 70 OFFCURVE",
"399 111 OFFCURVE",
"399 241 CURVE SMOOTH",
"399 292 LINE SMOOTH",
"399 422 OFFCURVE",
"345 465 OFFCURVE",
"274 465 CURVE SMOOTH",
"192 465 OFFCURVE",
"134 385 OFFCURVE",
"134 278 CURVE SMOOTH"
);
}
);
width = 600;
}
);
unicode = 0051;
},
{
glyphname = R;
lastChange = "2022-01-31 13:07:02 +0000";
layers = (
{
associatedMasterId = "78BDDC20-0CA0-41A5-B428-980291F99C29";
components = (
{
alignment = -1;
name = B;
transform = "{1, 0, 0, 1, 32, 0}";
}
);
layerId = "1B49C591-77C8-4A24-A4F0-52A677B0B6CB";
name = "Oct 22 19, 13:18";
width = 704;
},
{
associatedMasterId = "78BDDC20-0CA0-41A5-B428-980291F99C29";
components = (
{
name = upper_serif.cap;
transform = "{1, 0, 0, 1, 3, 41}";
},
{
name = upper_serif.cap;
transform = "{1, 0, 0, -1, 3, 699}";
},
{
name = upper_serif.cap;
transform = "{-1, 0, 0, -1, 375, 699}";
}
);
layerId = "3E4D33DA-BE12-4B0A-A920-58648A9DFD32";
name = "Regular Nov 3 19, 12:08";
paths = (
{
closed = 1;
nodes = (
"134 740 LINE",
"244 740 LINE",
"244 0 LINE",
"134 0 LINE"
);
},
{
closed = 1;
nodes = (
"590 414 OFFCURVE",
"461 342 OFFCURVE",
"310 342 CURVE SMOOTH",
"182 342 LINE",
"182 348 LINE",
"181 348 LINE",
"181 387 LINE",
"273 387 LINE SMOOTH",
"443 387 OFFCURVE",
"480 480 OFFCURVE",
"480 547 CURVE SMOOTH",
"480 641 OFFCURVE",
"412 694 OFFCURVE",
"307 694 CURVE SMOOTH",
"220 694 LINE",
"220 740 LINE",
"338 740 LINE SMOOTH",
"465 740 OFFCURVE",
"590 680 OFFCURVE",
"590 550 CURVE SMOOTH"
);
},
{
closed = 1;
nodes = (
"408 357 LINE",
"597 84 LINE SMOOTH",
"624 45 OFFCURVE",
"647 33 OFFCURVE",
"691 33 CURVE",
"691 0 LINE",
"512 0 LINE",
"295 346 LINE"
);
}
);
width = 706;
},
{
associatedMasterId = "78BDDC20-0CA0-41A5-B428-980291F99C29";
components = (
{
name = upper_serif.cap;
transform = "{1, 0, 0, 1, 3, 41}";
},
{
name = upper_serif.cap;
transform = "{1, 0, 0, -1, 3, 699}";
},
{
name = upper_serif.cap;
transform = "{-1, 0, 0, -1, 375, 699}";
}
);
layerId = "2726058A-7267-4FBE-84BF-27BEC9881BA1";
name = "Nov 3 19, 12:10";
paths = (
{
closed = 1;
nodes = (
"134 740 LINE",
"244 740 LINE",
"244 0 LINE",
"134 0 LINE"
);
},
{
closed = 1;
nodes = (
"600 414 OFFCURVE",
"471 342 OFFCURVE",
"320 342 CURVE SMOOTH",
"182 342 LINE",
"182 348 LINE",
"181 348 LINE",
"181 387 LINE",
"283 387 LINE SMOOTH",
"453 387 OFFCURVE",
"490 480 OFFCURVE",
"490 547 CURVE SMOOTH",
"490 641 OFFCURVE",
"422 694 OFFCURVE",
"317 694 CURVE SMOOTH",
"220 694 LINE",
"220 740 LINE",
"339 740 LINE SMOOTH",
"475 740 OFFCURVE",
"600 680 OFFCURVE",
"600 550 CURVE SMOOTH"
);
},
{
closed = 1;
nodes = (
"396 354 LINE",
"468 354 OFFCURVE",
"511 230 OFFCURVE",
"576 84 CURVE SMOOTH",
"593 46 OFFCURVE",
"606 33 OFFCURVE",
"650 33 CURVE",
"650 0 LINE",
"471 0 LINE",
"417 185 OFFCURVE",
"386 266 OFFCURVE",
"334 343 CURVE"
);
}
);
width = 706;
},
{
associatedMasterId = "78BDDC20-0CA0-41A5-B428-980291F99C29";
components = (
{
name = upper_serif.cap;
transform = "{1, 0, 0, 1, 3, 41}";
},
{
name = upper_serif.cap;
transform = "{1, 0, 0, -1, 3, 699}";
},
{
name = upper_serif.cap;
transform = "{-1, 0, 0, -1, 375, 699}";
}
);
layerId = "5ACB5442-3C18-49A2-A495-991FD4B45DD6";
name = "Nov 3 19, 12:11";
paths = (
{
closed = 1;
nodes = (
"134 740 LINE",
"244 740 LINE",
"244 0 LINE",
"134 0 LINE"
);
},
{
closed = 1;
nodes = (
"600 414 OFFCURVE",
"471 342 OFFCURVE",
"320 342 CURVE SMOOTH",
"182 342 LINE",
"182 348 LINE",
"181 348 LINE",
"181 387 LINE",
"283 387 LINE SMOOTH",
"453 387 OFFCURVE",
"490 480 OFFCURVE",
"490 547 CURVE SMOOTH",
"490 641 OFFCURVE",
"422 694 OFFCURVE",
"317 694 CURVE SMOOTH",
"220 694 LINE",
"220 740 LINE",
"339 740 LINE SMOOTH",
"475 740 OFFCURVE",
"600 680 OFFCURVE",
"600 550 CURVE SMOOTH"
);
},
{
closed = 1;
nodes = (
"396 354 LINE",
"468 354 OFFCURVE",
"520 230 OFFCURVE",
"576 84 CURVE SMOOTH",
"591 46 OFFCURVE",
"610 33 OFFCURVE",
"654 33 CURVE",
"654 0 LINE",
"469 0 LINE",
"434 167 OFFCURVE",
"382 342 OFFCURVE",
"296 342 CURVE"
);
}
);
width = 706;
},
{
associatedMasterId = "78BDDC20-0CA0-41A5-B428-980291F99C29";
components = (
{
name = upper_serif.cap;
transform = "{1, 0, 0, 1, 3, 41}";
},
{
name = upper_serif.cap;
transform = "{1, 0, 0, -1, 3, 699}";
},
{
name = upper_serif.cap;
transform = "{-1, 0, 0, -1, 375, 699}";
}
);
layerId = "91EEA6D3-74A1-4594-BA20-2D731ED7EC2E";
name = "Nov 7 19, 22:28";
paths = (
{
closed = 1;
nodes = (
"134 740 LINE",
"244 740 LINE",
"244 0 LINE",
"134 0 LINE"
);
},
{
closed = 1;
nodes = (
"591 414 OFFCURVE",
"463 342 OFFCURVE",
"312 342 CURVE SMOOTH",
"182 342 LINE",
"182 348 LINE",
"181 348 LINE",
"181 387 LINE",
"283 387 LINE SMOOTH",
"445 387 OFFCURVE",
"482 480 OFFCURVE",
"482 547 CURVE SMOOTH",
"482 641 OFFCURVE",
"414 694 OFFCURVE",
"309 694 CURVE SMOOTH",
"220 694 LINE",
"220 740 LINE",
"331 740 LINE SMOOTH",
"467 740 OFFCURVE",
"591 680 OFFCURVE",
"591 550 CURVE SMOOTH"
);
},
{
closed = 1;
nodes = (
"419 355 LINE",
"536 334 OFFCURVE",
"578 228 OFFCURVE",
"604 121 CURVE SMOOTH",
"622 46 OFFCURVE",
"644 33 OFFCURVE",
"688 33 CURVE",
"688 0 LINE",
"495 0 LINE",
"490 84 LINE SMOOTH",
"479 298 OFFCURVE",
"391 347 OFFCURVE",
"312 342 CURVE"
);
}
);
width = 703;
},
{
associatedMasterId = "78BDDC20-0CA0-41A5-B428-980291F99C29";
components = (
{
name = upper_serif.cap;
transform = "{1, 0, 0, 1, 3, 41}";
},
{
name = upper_serif.cap;
transform = "{1, 0, 0, -1, 3, 699}";
},
{
name = upper_serif.cap;
transform = "{-1, 0, 0, -1, 375, 699}";
}
);
layerId = "F3F72A22-DF3A-47D0-8202-CE4B812B1FE4";
name = "Regular Nov 7 19, 22:31";
paths = (
{
closed = 1;
nodes = (
"134 740 LINE",
"244 740 LINE",
"244 0 LINE",
"134 0 LINE"
);
},
{
closed = 1;
nodes = (
"591 414 OFFCURVE",
"463 342 OFFCURVE",
"312 342 CURVE SMOOTH",
"182 342 LINE",
"182 348 LINE",
"181 348 LINE",
"181 387 LINE",
"283 387 LINE SMOOTH",
"445 387 OFFCURVE",
"482 480 OFFCURVE",
"482 547 CURVE SMOOTH",
"482 641 OFFCURVE",
"414 694 OFFCURVE",
"309 694 CURVE SMOOTH",
"220 694 LINE",
"220 740 LINE",
"331 740 LINE SMOOTH",
"467 740 OFFCURVE",
"591 680 OFFCURVE",
"591 550 CURVE SMOOTH"
);
},
{
closed = 1;
nodes = (
"419 355 LINE",
"563 317 OFFCURVE",
"594 230 OFFCURVE",
"604 126 CURVE SMOOTH",
"611 56 OFFCURVE",
"644 33 OFFCURVE",
"688 33 CURVE",
"688 0 LINE",
"495 0 LINE",
"490 84 LINE SMOOTH",
"479 298 OFFCURVE",
"391 347 OFFCURVE",
"312 342 CURVE"
);
}
);
width = 703;
},
{
components = (
{
name = upper_serif.cap;
transform = "{-1, 0, 0, -1, 372, 764}";
},
{
name = upper_serif.cap;
transform = "{-1, 0, 0, 1, 372, 0}";
},
{
name = upper_serif.cap;
transform = "{1, 0, 0, 1, 26, 0}";
}
);
layerId = "78BDDC20-0CA0-41A5-B428-980291F99C29";
paths = (
{
closed = 1;
nodes = (
"144 764 LINE",
"254 764 LINE",
"254 0 LINE",
"144 0 LINE"
);
},
{
closed = 1;
nodes = (
"397 374 LINE",
"674 0 LINE",
"535 0 LINE",
"265 374 LINE"
);
},
{
closed = 1;
nodes = (
"254 344 LINE",
"254 377 LINE",
"304 377 LINE SMOOTH",
"389 377 OFFCURVE",
"487 420 OFFCURVE",
"487 545 CURVE SMOOTH",
"487 650 OFFCURVE",
"422 731 OFFCURVE",
"282 731 CURVE SMOOTH",
"254 731 LINE",
"254 764 LINE",
"323 764 LINE SMOOTH",
"463 764 OFFCURVE",
"602 729 OFFCURVE",
"602 580 CURVE SMOOTH",
"602 442 OFFCURVE",
"437 344 OFFCURVE",
"272 344 CURVE SMOOTH"
);
}
);
width = 699;
}
);
leftMetricsKey = "=N";
rightMetricsKey = "=25";
unicode = 0052;
},
{
glyphname = S;
lastChange = "2022-01-30 22:32:22 +0000";
layers = (
{
layerId = "78BDDC20-0CA0-41A5-B428-980291F99C29";
paths = (
{
closed = 1;
nodes = (
"64 447 OFFCURVE",
"132 389 OFFCURVE",
"225 353 CURVE SMOOTH",
"300 324 LINE SMOOTH",
"372 296 OFFCURVE",
"435 250 OFFCURVE",
"435 177 CURVE SMOOTH",
"435 100 OFFCURVE",
"372 45 OFFCURVE",
"285 45 CURVE SMOOTH",
"166 45 OFFCURVE",
"102 100 OFFCURVE",
"60 158 CURVE",
"60 23 LINE",
"97 3 OFFCURVE",
"179 -10 OFFCURVE",
"249 -10 CURVE SMOOTH",
"394 -10 OFFCURVE",
"525 98 OFFCURVE",
"525 222 CURVE SMOOTH",
"525 337 OFFCURVE",
"428 391 OFFCURVE",
"355 418 CURVE SMOOTH",
"268 451 LINE SMOOTH",
"181 484 OFFCURVE",
"139 534 OFFCURVE",
"139 598 CURVE SMOOTH",
"139 671 OFFCURVE",
"208 726 OFFCURVE",
"288 726 CURVE SMOOTH",
"351 726 OFFCURVE",
"414 703 OFFCURVE",
"487 635 CURVE",
"487 747 LINE",
"428 767 OFFCURVE",
"383 774 OFFCURVE",
"317 774 CURVE SMOOTH",
"189 774 OFFCURVE",
"64 684 OFFCURVE",
"64 552 CURVE"
);
}
);
width = 600;
},
{
associatedMasterId = "78BDDC20-0CA0-41A5-B428-980291F99C29";
layerId = "346B66FC-E012-4AC5-A453-C7091B6EEFE0";
name = "Oct 16 19, 21:00";
paths = (
{
closed = 1;
nodes = (
"67 327 OFFCURVE",
"408 320 OFFCURVE",
"408 175 CURVE SMOOTH",
"408 94 OFFCURVE",
"356 56 OFFCURVE",
"277 56 CURVE SMOOTH",
"184 56 OFFCURVE",
"139 104 OFFCURVE",
"94 213 CURVE",
"56 211 LINE",
"56 31 LINE",
"128 8 OFFCURVE",
"166 -9 OFFCURVE",
"268 -9 CURVE",
"425 -9 OFFCURVE",
"516 93 OFFCURVE",
"515 213 CURVE SMOOTH",
"513 407 OFFCURVE",
"182 450 OFFCURVE",
"182 599 CURVE SMOOTH",
"182 672 OFFCURVE",
"254 698 OFFCURVE",
"311 698 CURVE SMOOTH",
"378 698 OFFCURVE",
"449 646 OFFCURVE",
"461 539 CURVE",
"519 539 LINE",
"519 676 LINE",
"476 727 OFFCURVE",
"383 752 OFFCURVE",
"309 752 CURVE SMOOTH",
"145 752 OFFCURVE",
"67 651 OFFCURVE",
"67 568 CURVE"
);
}
);
width = 600;
},
{
associatedMasterId = "78BDDC20-0CA0-41A5-B428-980291F99C29";
layerId = "20AD2143-EE50-4C5B-A14E-2F921A9177C1";
name = "Jan 14 20, 14:21";
paths = (
{
closed = 1;
nodes = (
"59 333 OFFCURVE",
"399 329 OFFCURVE",
"399 166 CURVE SMOOTH",
"399 92 OFFCURVE",
"347 38 OFFCURVE",
"253 38 CURVE SMOOTH",
"165 38 OFFCURVE",
"107 103 OFFCURVE",
"91 240 CURVE",
"50 240 LINE",
"50 26 LINE",
"109 11 OFFCURVE",
"152 -9 OFFCURVE",
"246 -9 CURVE SMOOTH",
"403 -9 OFFCURVE",
"496 87 OFFCURVE",
"496 200 CURVE SMOOTH",
"496 408 OFFCURVE",
"156 415 OFFCURVE",
"156 588 CURVE SMOOTH",
"156 660 OFFCURVE",
"207 707 OFFCURVE",
"280 707 CURVE SMOOTH",
"356 707 OFFCURVE",
"426 651 OFFCURVE",
"438 523 CURVE",
"478 523 LINE",
"478 711 LINE",
"418 733 OFFCURVE",
"367 752 OFFCURVE",
"289 752 CURVE SMOOTH",
"145 752 OFFCURVE",
"59 660 OFFCURVE",
"59 556 CURVE"
);
}
);
width = 556;
},
{
associatedMasterId = "78BDDC20-0CA0-41A5-B428-980291F99C29";
layerId = "AFF2A535-90DF-492D-B876-B517B75C3486";
name = "Nov 21 20, 21:56";
paths = (
{
closed = 1;
nodes = (
"69 327 OFFCURVE",
"413 331 OFFCURVE",
"413 164 CURVE SMOOTH",
"413 86 OFFCURVE",
"361 30 OFFCURVE",
"273 30 CURVE SMOOTH",
"176 30 OFFCURVE",
"119 85 OFFCURVE",
"96 244 CURVE",
"60 244 LINE",
"60 11 LINE",
"148 12 OFFCURVE",
"177 -15 OFFCURVE",
"263 -15 CURVE SMOOTH",
"415 -15 OFFCURVE",
"504 91 OFFCURVE",
"504 203 CURVE SMOOTH",
"504 417 OFFCURVE",
"156 415 OFFCURVE",
"156 587 CURVE SMOOTH",
"156 662 OFFCURVE",
"218 697 OFFCURVE",
"283 697 CURVE SMOOTH",
"368 697 OFFCURVE",
"431 634 OFFCURVE",
"443 506 CURVE",
"478 506 LINE",
"478 710 LINE",
"416 714 OFFCURVE",
"373 740 OFFCURVE",
"295 740 CURVE SMOOTH",
"154 740 OFFCURVE",
"69 649 OFFCURVE",
"69 546 CURVE"
);
}
);
width = 569;
},
{
associatedMasterId = "78BDDC20-0CA0-41A5-B428-980291F99C29";
layerId = "C93E92E3-278A-4EFC-80B8-BEBA8F1D4C92";
name = "Sep 7 21, 17:36";
paths = (
{
closed = 1;
nodes = (
"66 293 OFFCURVE",
"413 347 OFFCURVE",
"413 150 CURVE SMOOTH",
"413 72 OFFCURVE",
"361 30 OFFCURVE",
"273 30 CURVE SMOOTH",
"207 30 OFFCURVE",
"119 85 OFFCURVE",
"96 244 CURVE",
"60 244 LINE",
"60 11 LINE",
"99 4 OFFCURVE",
"177 -15 OFFCURVE",
"263 -15 CURVE SMOOTH",
"415 -15 OFFCURVE",
"504 77 OFFCURVE",
"504 189 CURVE SMOOTH",
"504 433 OFFCURVE",
"145 417 OFFCURVE",
"145 581 CURVE SMOOTH",
"145 647 OFFCURVE",
"207 697 OFFCURVE",
"283 697 CURVE SMOOTH",
"366 697 OFFCURVE",
"429 634 OFFCURVE",
"441 506 CURVE",
"478 506 LINE",
"478 712 LINE",
"416 732 OFFCURVE",
"373 740 OFFCURVE",
"295 740 CURVE SMOOTH",
"154 740 OFFCURVE",
"66 645 OFFCURVE",
"66 522 CURVE"
);
}
);
width = 569;
},
{
associatedMasterId = "78BDDC20-0CA0-41A5-B428-980291F99C29";
layerId = "EB1F6737-CA9E-473A-AC17-E06EDD881F42";
name = "Jan 26 22, 17:07";
paths = (
{
closed = 1;
nodes = (
"70 344 OFFCURVE",
"426 333 OFFCURVE",
"426 175 CURVE SMOOTH",
"426 69 OFFCURVE",
"294 56 OFFCURVE",
"263 56 CURVE SMOOTH",
"172 56 OFFCURVE",
"95 131 OFFCURVE",
"51 189 CURVE",
"51 16 LINE",
"90 9 OFFCURVE",
"147 -10 OFFCURVE",
"233 -10 CURVE SMOOTH",
"385 -10 OFFCURVE",
"524 92 OFFCURVE",
"524 204 CURVE SMOOTH",
"524 440 OFFCURVE",
"160 432 OFFCURVE",
"160 604 CURVE SMOOTH",
"160 665 OFFCURVE",
"218 711 OFFCURVE",
"273 711 CURVE SMOOTH",
"325 711 OFFCURVE",
"421 690 OFFCURVE",
"498 601 CURVE",
"498 746 LINE",
"436 766 OFFCURVE",
"393 774 OFFCURVE",
"336 774 CURVE SMOOTH",
"218 774 OFFCURVE",
"70 691 OFFCURVE",
"70 546 CURVE SMOOTH"
);
}
);
width = 569;
},
{
associatedMasterId = "78BDDC20-0CA0-41A5-B428-980291F99C29";
layerId = "2DDA4994-EDF2-4883-B5F6-BC6B6923A48A";
name = "Jan 27 22, 11:25";
paths = (
{
closed = 1;
nodes = (
"385 46 OFFCURVE",
"444 105 OFFCURVE",
"444 178 CURVE SMOOTH",
"444 251 OFFCURVE",
"385 310 OFFCURVE",
"312 311 CURVE SMOOTH",
"238 312 OFFCURVE",
"179 251 OFFCURVE",
"179 178 CURVE SMOOTH",
"179 105 OFFCURVE",
"238 46 OFFCURVE",
"312 46 CURVE SMOOTH"
);
},
{
closed = 1;
nodes = (
"356 470 OFFCURVE",
"411 525 OFFCURVE",
"411 594 CURVE SMOOTH",
"411 663 OFFCURVE",
"356 718 OFFCURVE",
"287 719 CURVE SMOOTH",
"217 720 OFFCURVE",
"162 663 OFFCURVE",
"162 594 CURVE SMOOTH",
"162 525 OFFCURVE",
"217 470 OFFCURVE",
"287 470 CURVE SMOOTH"
);
}
);
width = 607;
}
);
leftMetricsKey = "=60";
rightMetricsKey = "=75";
unicode = 0053;
},
{
glyphname = T;
lastChange = "2022-01-30 22:30:45 +0000";
layers = (
{
anchors = (
{
name = bottom;
position = "{321, 0}";
},
{
name = center;
position = "{321, 345}";
},
{
name = top;
position = "{321, 690}";
}
);
components = (
{
name = upper_serif.cap;
transform = "{1, 0, 0, 1, 159, 2}";
},
{
name = upper_serif.cap;
transform = "{-1, 0, 0, 1, 505, 2}";
},
{
name = t_barre;
transform = "{1, 0, 0, 1, -33, 39}";
},
{
name = t_barre;
transform = "{-1, 0, 0, 1, 697, 39}";
}
);
layerId = "78BDDC20-0CA0-41A5-B428-980291F99C29";
paths = (
{
closed = 1;
nodes = (
"277 741 LINE",
"387 741 LINE",
"387 0 LINE",
"277 0 LINE"
);
}
);
width = 664;
},
{
anchors = (
{
name = bottom;
position = "{328, 0}";
},
{
name = center;
position = "{328, 345}";
},
{
name = top;
position = "{328, 690}";
}
);
associatedMasterId = "78BDDC20-0CA0-41A5-B428-980291F99C29";
components = (
{
name = upper_serif.cap;
transform = "{1, 0, 0, -1, 163, 699}";
},
{
name = upper_serif.cap;
transform = "{-1, 0, 0, -1, 523, 699}";
}
);
layerId = "984C7910-DD1F-4056-8607-739B166A23F5";
name = "Sep 11 19, 16:32";
paths = (
{
closed = 1;
nodes = (
"294 717 LINE",
"392 717 LINE",
"392 0 LINE",
"294 0 LINE"
);
},
{
closed = 1;
nodes = (
"289 740 LINE",
"654 740 LINE",
"669 545 LINE",
"636 545 LINE",
"623 595 LINE SMOOTH",
"605 666 OFFCURVE",
"554 701 OFFCURVE",
"464 701 CURVE SMOOTH",
"292 701 LINE"
);
},
{
closed = 1;
nodes = (
"222 701 LINE SMOOTH",
"132 701 OFFCURVE",
"84 665 OFFCURVE",
"67 605 CURVE SMOOTH",
"50 545 LINE",
"17 545 LINE",
"32 740 LINE",
"397 740 LINE",
"394 701 LINE"
);
}
);
width = 686;
},
{
anchors = (
{
name = bottom;
position = "{320, 0}";
},
{
name = center;
position = "{320, 345}";
},
{
name = top;
position = "{320, 690}";
}
);
associatedMasterId = "78BDDC20-0CA0-41A5-B428-980291F99C29";
layerId = "A8C38086-9B61-4A3F-A937-1E1FA7662A0E";
name = "Feb 3 20, 19:55";
paths = (
{
closed = 1;
nodes = (
"290 702 LINE",
"390 702 LINE",
"390 0 LINE",
"290 0 LINE"
);
},
{
closed = 1;
nodes = (
"285 725 LINE",
"408 725 OFFCURVE",
"581 722 OFFCURVE",
"654 733 CURVE",
"654 518 LINE",
"620 518 LINE",
"614 571 LINE SMOOTH",
"607 637 OFFCURVE",
"568 674 OFFCURVE",
"471 674 CURVE SMOOTH",
"293 674 LINE"
);
},
{
closed = 1;
nodes = (
"208 674 LINE SMOOTH",
"111 674 OFFCURVE",
"72 637 OFFCURVE",
"65 571 CURVE SMOOTH",
"59 518 LINE",
"25 518 LINE",
"25 733 LINE",
"98 722 OFFCURVE",
"272 725 OFFCURVE",
"395 725 CURVE",
"387 674 LINE"
);
},
{
closed = 1;
nodes = (
"305 46 LINE",
"291 46 LINE",
"290 0 LINE",
"194 0 LINE",
"194 33 LINE",
"256 38 OFFCURVE",
"290 52 OFFCURVE",
"290 105 CURVE",
"305 65 LINE"
);
},
{
closed = 1;
nodes = (
"390 105 LINE",
"390 52 OFFCURVE",
"424 38 OFFCURVE",
"486 33 CURVE",
"486 0 LINE",
"390 0 LINE",
"389 46 LINE",
"375 46 LINE",
"375 65 LINE"
);
}
);
width = 679;
},
{
anchors = (
{
name = bottom;
position = "{319, 0}";
},
{
name = center;
position = "{319, 345}";
},
{
name = top;
position = "{319, 690}";
}
);
associatedMasterId = "78BDDC20-0CA0-41A5-B428-980291F99C29";
components = (
{
name = upper_serif.cap;
transform = "{1, 0, 0, -1, 158, 699}";
},
{
name = upper_serif.cap;
transform = "{-1, 0, 0, -1, 520, 699}";
}
);
layerId = "CE0A3244-10F9-4050-9BFA-3258E5CC2C76";
name = "Feb 3 20, 21:37";
paths = (
{
closed = 1;
nodes = (
"289 702 LINE",
"389 702 LINE",
"389 0 LINE",
"289 0 LINE"
);
},
{
closed = 1;
nodes = (
"289 725 LINE",
"486 725 LINE SMOOTH",
"565 725 OFFCURVE",
"604 725 OFFCURVE",
"644 736 CURVE",
"653 732 LINE",
"653 518 LINE",
"619 518 LINE",
"613 571 LINE SMOOTH",
"606 637 OFFCURVE",
"567 674 OFFCURVE",
"480 674 CURVE SMOOTH",
"289 674 LINE"
);
},
{
closed = 1;
nodes = (
"198 674 LINE SMOOTH",
"111 674 OFFCURVE",
"72 637 OFFCURVE",
"65 571 CURVE SMOOTH",
"59 518 LINE",
"25 518 LINE",
"25 732 LINE",
"34 736 LINE",
"74 725 OFFCURVE",
"113 725 OFFCURVE",
"192 725 CURVE SMOOTH",
"389 725 LINE",
"389 674 LINE"
);
}
);
width = 678;
},
{
anchors = (
{
name = bottom;
position = "{297, 0}";
},
{
name = center;
position = "{297, 345}";
},
{
name = top;
position = "{297, 690}";
}
);
associatedMasterId = "78BDDC20-0CA0-41A5-B428-980291F99C29";
components = (
{
name = upper_serif.cap;
transform = "{1, 0, 0, -1, 134, 699}";
},
{
name = upper_serif.cap;
transform = "{-1, 0, 0, -1, 491, 699}";
}
);
layerId = "F3692A90-4A90-4DC4-982B-03ACA2E25A9F";
name = "Sep 29 21, 10:15";
paths = (
{
closed = 1;
nodes = (
"265 702 LINE",
"360 702 LINE",
"360 0 LINE",
"265 0 LINE"
);
},
{
closed = 1;
nodes = (
"252 725 LINE",
"523 725 LINE SMOOTH",
"578 725 OFFCURVE",
"613 732 OFFCURVE",
"630 735 CURVE",
"630 597 LINE",
"603 597 LINE",
"585 634 OFFCURVE",
"544 677 OFFCURVE",
"435 677 CURVE SMOOTH",
"252 677 LINE"
);
},
{
closed = 1;
nodes = (
"190 677 LINE SMOOTH",
"81 677 OFFCURVE",
"40 634 OFFCURVE",
"22 597 CURVE",
"-5 597 LINE",
"-5 735 LINE",
"12 732 OFFCURVE",
"47 725 OFFCURVE",
"102 725 CURVE SMOOTH",
"373 725 LINE",
"373 677 LINE"
);
}
);
width = 625;
},
{
anchors = (
{
name = bottom;
position = "{279, 0}";
},
{
name = center;
position = "{279, 345}";
},
{
name = top;
position = "{279, 690}";
}
);
associatedMasterId = "78BDDC20-0CA0-41A5-B428-980291F99C29";
layerId = "BA177703-F0D6-4D36-A018-A3F82746D04C";
name = "Oct 7 21, 14:51";
paths = (
{
closed = 1;
nodes = (
"247 702 LINE",
"342 702 LINE",
"342 0 LINE",
"247 0 LINE"
);
},
{
closed = 1;
nodes = (
"152 0 LINE",
"152 39 LINE",
"205 39 LINE SMOOTH",
"229 39 OFFCURVE",
"247 50 OFFCURVE",
"247 80 CURVE",
"247 0 LINE"
);
},
{
closed = 1;
nodes = (
"342 80 LINE",
"342 50 OFFCURVE",
"360 39 OFFCURVE",
"384 39 CURVE SMOOTH",
"437 39 LINE",
"437 0 LINE",
"342 0 LINE"
);
},
{
closed = 1;
nodes = (
"271 725 LINE",
"595 725 LINE",
"594 575 LINE",
"553 575 LINE",
"553 647 OFFCURVE",
"525 684 OFFCURVE",
"450 684 CURVE SMOOTH",
"271 684 LINE"
);
},
{
closed = 1;
nodes = (
"139 684 LINE SMOOTH",
"68 684 OFFCURVE",
"48 647 OFFCURVE",
"48 575 CURVE",
"7 575 LINE",
"11 725 LINE",
"318 725 LINE",
"318 684 LINE"
);
},
{
closed = 1;
nodes = (
"455 725 LINE SMOOTH",
"530 725 OFFCURVE",
"559 730 OFFCURVE",
"559 754 CURVE",
"600 754 LINE",
"589 684 LINE",
"271 684 LINE",
"271 725 LINE"
);
},
{
closed = 1;
nodes = (
"318 684 LINE",
"4 684 LINE",
"15 754 LINE",
"56 754 LINE",
"56 722 OFFCURVE",
"139 725 OFFCURVE",
"214 725 CURVE SMOOTH",
"318 725 LINE"
);
}
);
width = 589;
}
);
leftMetricsKey = "=20";
rightMetricsKey = "=20";
unicode = 0054;
},
{
glyphname = U;
lastChange = "2022-01-27 13:41:19 +0000";
layers = (
{
components = (
{
name = upper_serif.cap;
transform = "{1, 0, 0, 1, -35, 41}";
},
{
name = upper_serif.cap;
transform = "{-1, 0, 0, 1, 337, 41}";
},
{
name = upper_serif.cap;
transform = "{1, 0, 0, 1, 483, 41}";
},
{
name = upper_serif.cap;
transform = "{-1, 0, 0, 1, 801, 41}";
}
);
layerId = "78BDDC20-0CA0-41A5-B428-980291F99C29";
paths = (
{
closed = 1;
nodes = (
"96 740 LINE",
"206 740 LINE",
"206 299 LINE SMOOTH",
"206 125 OFFCURVE",
"280 44 OFFCURVE",
"412 44 CURVE SMOOTH",
"562 44 OFFCURVE",
"614 153 OFFCURVE",
"614 298 CURVE SMOOTH",
"614 740 LINE",
"670 740 LINE",
"670 308 LINE SMOOTH",
"670 125 OFFCURVE",
"593 -10 OFFCURVE",
"401 -10 CURVE SMOOTH",
"184 -10 OFFCURVE",
"96 116 OFFCURVE",
"96 298 CURVE SMOOTH"
);
}
);
width = 820;
},
{
associatedMasterId = "78BDDC20-0CA0-41A5-B428-980291F99C29";
layerId = "2254D42E-C613-4350-9705-35472A8950D3";
name = "Nov 1 19, 12:36";
paths = (
{
closed = 1;
nodes = (
"742 116 OFFCURVE",
"654 -10 OFFCURVE",
"437 -10 CURVE SMOOTH",
"245 -10 OFFCURVE",
"168 125 OFFCURVE",
"168 308 CURVE SMOOTH",
"168 740 LINE",
"224 740 LINE",
"224 298 LINE SMOOTH",
"224 153 OFFCURVE",
"276 44 OFFCURVE",
"426 44 CURVE SMOOTH",
"558 44 OFFCURVE",
"632 138 OFFCURVE",
"632 310 CURVE SMOOTH",
"632 740 LINE",
"742 740 LINE",
"742 290 LINE SMOOTH"
);
},
{
closed = 1;
nodes = (
"688 116 OFFCURVE",
"600 -10 OFFCURVE",
"383 -10 CURVE SMOOTH",
"191 -10 OFFCURVE",
"114 125 OFFCURVE",
"114 308 CURVE SMOOTH",
"114 740 LINE",
"170 740 LINE",
"170 298 LINE SMOOTH",
"170 153 OFFCURVE",
"222 44 OFFCURVE",
"372 44 CURVE SMOOTH",
"504 44 OFFCURVE",
"578 138 OFFCURVE",
"578 310 CURVE SMOOTH",
"578 740 LINE",
"688 740 LINE",
"688 290 LINE SMOOTH"
);
}
);
width = 802;
visible = 1;
}
);
leftMetricsKey = "=20";
rightMetricsKey = "=20";
unicode = 0055;
},
{
glyphname = V;
lastChange = "2022-01-30 19:38:16 +0000";
layers = (
{
components = (
{
name = upper_serif.cap;
transform = "{-1, 0, 0, -1, 851, 764}";
},
{
name = upper_serif.cap;
transform = "{1, 0, 0, -1, 435, 764}";
},
{
name = upper_serif.cap;
transform = "{-1, 0, 0, -1, 287, 764}";
},
{
name = upper_serif.cap;
transform = "{1, 0, 0, -1, -55, 764}";
}
);
layerId = "78BDDC20-0CA0-41A5-B428-980291F99C29";
paths = (
{
closed = 1;
nodes = (
"679 764 LINE",
"360 -10 LINE",
"43 764 LINE",
"159 764 LINE",
"412 140 LINE",
"370 121 LINE",
"637 764 LINE"
);
},
{
closed = 1;
nodes = (
"679 764 LINE",
"360 -10 LINE",
"43 764 LINE",
"159 764 LINE",
"412 140 LINE",
"370 121 LINE",
"637 764 LINE"
);
}
);
width = 722;
},
{
associatedMasterId = "78BDDC20-0CA0-41A5-B428-980291F99C29";
layerId = "2C6FD6E1-5DED-4141-88B6-BA111B8CFF1A";
name = "Sep 19 19, 21:23";
paths = (
{
closed = 1;
nodes = (
"109 740 LINE",
"355 121 LINE",
"313 -10 LINE",
"280 -10 LINE",
"-18 740 LINE"
);
},
{
closed = 1;
nodes = (
"330 -10 LINE",
"302 -10 LINE",
"302 101 LINE",
"557 740 LINE",
"628 740 LINE"
);
},
{
closed = 1;
nodes = (
"502 602 LINE",
"529 674 OFFCURVE",
"461 689 OFFCURVE",
"399 693 CURVE",
"399 740 LINE",
"565 740 LINE",
"530 659 LINE"
);
},
{
closed = 1;
nodes = (
"591 740 LINE",
"694 740 LINE",
"694 693 LINE",
"635 689 OFFCURVE",
"600 674 OFFCURVE",
"573 602 CURVE",
"576 659 LINE"
);
},
{
closed = 1;
nodes = (
"94 740 LINE",
"248 740 LINE",
"248 693 LINE",
"186 689 OFFCURVE",
"136 674 OFFCURVE",
"164 602 CURVE",
"119 659 LINE"
);
},
{
closed = 1;
nodes = (
"37 602 LINE",
"8 674 OFFCURVE",
"-7 689 OFFCURVE",
"-69 693 CURVE",
"-69 740 LINE",
"9 740 LINE",
"24 659 LINE"
);
}
);
width = 626;
}
);
leftMetricsKey = "=-30";
rightMetricsKey = "=-30";
unicode = 0056;
},
{
glyphname = W;
lastChange = "2022-01-30 19:38:55 +0000";
layers = (
{
components = (
{
name = upper_serif.cap;
transform = "{-1, 0, 0, -1, 287, 764}";
},
{
name = upper_serif.cap;
transform = "{1, 0, 0, -1, -56, 764}";
},
{
name = upper_serif.cap;
transform = "{-1, 0, 0, -1, 1261, 764}";
},
{
name = upper_serif.cap;
transform = "{1, 0, 0, -1, 845, 764}";
}
);
layerId = "78BDDC20-0CA0-41A5-B428-980291F99C29";
paths = (
{
closed = 1;
nodes = (
"615 699 LINE",
"332 -10 LINE",
"45 764 LINE",
"161 764 LINE",
"384 140 LINE",
"342 121 LINE",
"603 774 LINE"
);
},
{
closed = 1;
nodes = (
"1087 764 LINE",
"798 -10 LINE",
"551 613 LINE",
"603 774 LINE",
"850 140 LINE",
"808 121 LINE",
"1045 764 LINE"
);
},
{
closed = 1;
nodes = (
"615 699 LINE",
"332 -10 LINE",
"45 764 LINE",
"161 764 LINE",
"384 140 LINE",
"342 121 LINE",
"603 774 LINE"
);
},
{
closed = 1;
nodes = (
"1087 764 LINE",
"798 -10 LINE",
"551 613 LINE",
"603 774 LINE",
"850 140 LINE",
"808 121 LINE",
"1045 764 LINE"
);
}
);
width = 1132;
},
{
associatedMasterId = "78BDDC20-0CA0-41A5-B428-980291F99C29";
layerId = "CC55726B-00C9-4B43-A341-E58267D45006";
name = "Feb 24 20, 15:25";
paths = (
{
closed = 1;
nodes = (
"-10 740 LINE",
"309 740 LINE",
"309 707 LINE",
"228 707 OFFCURVE",
"190 693 OFFCURVE",
"214 628 CURVE SMOOTH",
"393 136 LINE",
"373 129 LINE",
"554 624 LINE SMOOTH",
"578 690 OFFCURVE",
"527 707 OFFCURVE",
"466 707 CURVE",
"466 740 LINE",
"720 740 LINE",
"720 707 LINE",
"667 707 OFFCURVE",
"635 686 OFFCURVE",
"612 624 CURVE SMOOTH",
"374 -10 LINE",
"328 -10 LINE",
"89 629 LINE SMOOTH",
"69 681 OFFCURVE",
"48 707 OFFCURVE",
"-10 707 CURVE"
);
},
{
closed = 1;
nodes = (
"435 740 LINE",
"754 740 LINE",
"754 707 LINE",
"673 707 OFFCURVE",
"635 693 OFFCURVE",
"659 628 CURVE SMOOTH",
"838 136 LINE",
"818 129 LINE",
"999 624 LINE SMOOTH",
"1023 690 OFFCURVE",
"972 707 OFFCURVE",
"911 707 CURVE",
"911 740 LINE",
"1165 740 LINE",
"1165 707 LINE",
"1112 707 OFFCURVE",
"1080 686 OFFCURVE",
"1057 624 CURVE SMOOTH",
"819 -10 LINE",
"773 -10 LINE",
"534 629 LINE SMOOTH",
"514 681 OFFCURVE",
"493 707 OFFCURVE",
"435 707 CURVE"
);
}
);
width = 1155;
}
);
leftMetricsKey = "=V";
rightMetricsKey = "=V";
unicode = 0057;
},
{
glyphname = X;
lastChange = "2019-10-31 19:24:23 +0000";
layers = (
{
layerId = "78BDDC20-0CA0-41A5-B428-980291F99C29";
paths = (
{
closed = 1;
nodes = (
"454 370 LINE",
"642 614 LINE SMOOTH",
"688 673 OFFCURVE",
"720 695 OFFCURVE",
"774 707 CURVE",
"774 740 LINE",
"533 740 LINE",
"533 707 LINE",
"567 707 OFFCURVE",
"603 699 OFFCURVE",
"603 665 CURVE SMOOTH",
"603 646 OFFCURVE",
"592 626 OFFCURVE",
"563 589 CURVE SMOOTH",
"394 369 LINE"
);
},
{
closed = 1;
nodes = (
"286 0 LINE",
"286 33 LINE",
"252 33 OFFCURVE",
"231 49 OFFCURVE",
"231 74 CURVE SMOOTH",
"231 97 OFFCURVE",
"245 116 OFFCURVE",
"277 158 CURVE SMOOTH",
"436 366 LINE",
"376 366 LINE",
"196 131 LINE SMOOTH",
"156 79 OFFCURVE",
"106 40 OFFCURVE",
"60 33 CURVE",
"60 0 LINE"
);
},
{
closed = 1;
nodes = (
"99 707 OFFCURVE",
"127 683 OFFCURVE",
"166 628 CURVE SMOOTH",
"498 162 LINE SMOOTH",
"523 126 OFFCURVE",
"539 106 OFFCURVE",
"539 83 CURVE SMOOTH",
"539 47 OFFCURVE",
"503 33 OFFCURVE",
"462 33 CURVE",
"462 0 LINE",
"781 0 LINE",
"781 33 LINE SMOOTH",
"733 33 OFFCURVE",
"706 55 OFFCURVE",
"667 110 CURVE",
"344 566 LINE",
"314 609 OFFCURVE",
"294 636 OFFCURVE",
"294 661 CURVE SMOOTH",
"294 698 OFFCURVE",
"336 707 OFFCURVE",
"372 707 CURVE SMOOTH",
"372 740 LINE",
"50 740 LINE",
"50 707 LINE"
);
}
);
width = 831;
}
);
leftMetricsKey = "=50";
rightMetricsKey = "=50";
unicode = 0058;
},
{
glyphname = Y;
lastChange = "2019-11-01 10:56:33 +0000";
layers = (
{
components = (
{
name = upper_serif.cap;
transform = "{1, 0, 0, -1, 214, 699}";
},
{
name = upper_serif.cap;
transform = "{-1, 0, 0, -1, 586, 699}";
}
);
layerId = "78BDDC20-0CA0-41A5-B428-980291F99C29";
paths = (
{
closed = 1;
nodes = (
"345 336 LINE",
"455 336 LINE",
"455 0 LINE",
"345 0 LINE"
);
},
{
closed = 1;
nodes = (
"30 740 LINE",
"343 740 LINE",
"343 707 LINE",
"262 707 OFFCURVE",
"236 698 OFFCURVE",
"270 635 CURVE SMOOTH",
"447 308 LINE",
"388 287 LINE",
"595 633 LINE SMOOTH",
"631 693 OFFCURVE",
"588 707 OFFCURVE",
"527 707 CURVE",
"527 740 LINE",
"775 740 LINE",
"775 707 LINE",
"722 707 OFFCURVE",
"689 689 OFFCURVE",
"651 627 CURVE SMOOTH",
"420 246 LINE",
"363 237 LINE",
"142 632 LINE SMOOTH",
"114 682 OFFCURVE",
"88 707 OFFCURVE",
"30 707 CURVE"
);
}
);
width = 805;
}
);
leftMetricsKey = "=30";
rightMetricsKey = "=30";
unicode = 0059;
},
{
glyphname = Z;
lastChange = "2019-11-01 10:56:23 +0000";
layers = (
{
layerId = "78BDDC20-0CA0-41A5-B428-980291F99C29";
paths = (
{
closed = 1;
nodes = (
"346 53 LINE",
"417 54 LINE",
"501 55 OFFCURVE",
"529 104 OFFCURVE",
"550 212 CURVE",
"591 212 LINE",
"591 0 LINE",
"263 0 LINE"
);
},
{
closed = 1;
nodes = (
"272 688 LINE",
"207 687 LINE SMOOTH",
"121 686 OFFCURVE",
"93 637 OFFCURVE",
"72 529 CURVE",
"31 529 LINE",
"31 740 LINE",
"340 740 LINE"
);
},
{
closed = 1;
nodes = (
"479 731 LINE",
"486 688 LINE",
"40 688 LINE",
"40 740 LINE",
"574 740 LINE",
"588 715 LINE",
"129 9 LINE",
"116 53 LINE",
"520 53 LINE",
"518 0 LINE",
"34 0 LINE",
"20 27 LINE"
);
}
);
width = 621;
}
);
leftMetricsKey = "=20";
rightMetricsKey = "=30";
unicode = 005A;
},
